<svg width="525" height="525" viewBox="0 0 525 525" fill="none" xmlns="http://www.w3.org/2000/svg">
<path d="M428.652 268.033C522.816 322.35 522.816 410.55 428.652 464.898C334.488 519.246 181.818 519.267 87.6541 464.898C-6.50995 410.529 -6.49945 322.392 87.6541 268.033C181.808 213.675 334.499 213.664 428.652 268.033Z" fill="#FAFAFA"/>
<path d="M474.159 397.761C474.159 397.761 463.123 367.857 468.426 335.559C471.387 317.51 481.026 307.619 487.651 305.603C495.106 303.345 504.157 309.11 499.495 321.521C495.054 333.312 483.462 339.927 481.372 368.918C479.986 388.038 483 399.935 483 399.935L474.159 397.761Z" fill="#ED5AA0"/>
<path opacity="0.5" d="M474.159 397.761C474.159 397.761 463.123 367.857 468.426 335.559C471.387 317.51 481.026 307.619 487.651 305.603C495.106 303.345 504.157 309.11 499.495 321.521C495.054 333.312 483.462 339.927 481.372 368.918C479.986 388.038 483 399.935 483 399.935L474.159 397.761Z" fill="white"/>
<path d="M477.425 389.067C477.54 389.031 477.637 388.952 477.698 388.847C477.758 388.742 477.777 388.618 477.75 388.5C468.132 355.31 479.126 324.009 489.993 312.375C490.081 312.283 490.13 312.161 490.13 312.034C490.13 311.907 490.081 311.784 489.993 311.693C489.949 311.647 489.896 311.61 489.837 311.585C489.779 311.56 489.716 311.547 489.652 311.547C489.588 311.547 489.525 311.56 489.466 311.585C489.408 311.61 489.355 311.647 489.311 311.693C478.275 323.495 467.124 355.194 476.847 388.742C476.884 388.859 476.964 388.959 477.071 389.019C477.178 389.08 477.305 389.097 477.425 389.067Z" fill="white"/>
<path d="M483 399.935C482.664 391.955 485.478 383.135 493.122 372.992C500.766 362.849 512.022 352.727 508.746 345.534C505.47 338.342 495.758 341.744 489.468 347.162C483.179 352.58 470.4 371.858 478.569 398.853L483 399.935Z" fill="#ED5AA0"/>
<path opacity="0.65" d="M483 399.935C482.664 391.955 485.478 383.135 493.122 372.992C500.766 362.849 512.022 352.727 508.746 345.534C505.47 338.342 495.758 341.744 489.468 347.162C483.179 352.58 470.4 371.858 478.569 398.853L483 399.935Z" fill="white"/>
<path d="M479.441 391.65C479.551 391.62 479.646 391.552 479.71 391.458C479.774 391.363 479.801 391.249 479.787 391.135C478.086 374.451 493.269 350.406 501.448 345.66C501.558 345.594 501.638 345.488 501.669 345.364C501.701 345.24 501.682 345.109 501.616 344.998C501.586 344.942 501.544 344.893 501.494 344.853C501.444 344.813 501.386 344.784 501.324 344.767C501.262 344.751 501.198 344.747 501.134 344.756C501.071 344.765 501.01 344.787 500.955 344.82C492.387 349.744 477.057 373.8 478.8 391.177C478.805 391.241 478.823 391.303 478.852 391.359C478.882 391.416 478.922 391.466 478.971 391.507C479.019 391.548 479.076 391.579 479.137 391.598C479.198 391.617 479.262 391.624 479.325 391.618L479.441 391.65Z" fill="white"/>
<path d="M196.854 464.205C163.202 464.205 135.922 448.457 135.922 429.03C135.922 409.603 163.202 393.855 196.854 393.855C230.506 393.855 257.785 409.603 257.785 429.03C257.785 448.457 230.506 464.205 196.854 464.205Z" fill="#E0E0E0"/>
<path d="M87.402 461.443C53.7505 461.443 26.4705 445.695 26.4705 426.268C26.4705 406.842 53.7505 391.093 87.402 391.093C121.054 391.093 148.333 406.842 148.333 426.268C148.333 445.695 121.054 461.443 87.402 461.443Z" fill="#E0E0E0"/>
<path d="M426.541 462.431C387.723 462.431 356.254 444.261 356.254 421.848C356.254 399.435 387.723 381.266 426.541 381.266C465.36 381.266 496.828 399.435 496.828 421.848C496.828 444.261 465.36 462.431 426.541 462.431Z" fill="#E0E0E0"/>
<path d="M480.648 238.087V119.7C480.59 117.914 480.077 116.172 479.157 114.639L485.541 110.911C486.477 112.451 487.005 114.204 487.074 116.004V234.339C487.089 234.993 486.916 235.638 486.576 236.196C486.235 236.755 485.741 237.203 485.153 237.489L484.974 237.594L479 241.101C479.516 240.789 479.941 240.346 480.231 239.817C480.52 239.287 480.664 238.691 480.648 238.087Z" fill="#ED5AA0"/>
<path opacity="0.1" d="M480.648 238.087V119.7C480.59 117.914 480.077 116.172 479.157 114.639L485.541 110.911C486.477 112.451 487.005 114.204 487.074 116.004V234.339C487.089 234.993 486.916 235.638 486.576 236.196C486.235 236.755 485.741 237.203 485.153 237.489L484.974 237.594L479 241.101C479.516 240.789 479.941 240.346 480.231 239.817C480.52 239.287 480.664 238.691 480.648 238.087Z" fill="black"/>
<path d="M477.215 241.038C477.993 241.03 478.737 240.714 479.284 240.159C479.831 239.604 480.136 238.856 480.134 238.077V119.7C480.053 118.024 479.58 116.391 478.752 114.931C477.924 113.472 476.764 112.228 475.367 111.3L361.274 44.814C360.686 44.4342 360.009 44.2168 359.31 44.184C358.998 44.1788 358.688 44.2472 358.407 44.3835C358.279 44.4378 358.159 44.5084 358.05 44.5935C357.654 44.914 357.348 45.3328 357.164 45.8081C356.98 46.2833 356.923 46.7986 357 47.3025V165.658C357.085 167.333 357.561 168.965 358.388 170.423C359.216 171.882 360.373 173.126 361.767 174.058L467.702 235.809L475.902 240.712C476.306 240.927 476.757 241.039 477.215 241.038Z" fill="#FAFAFA"/>
<path d="M359.31 44.7089C359.069 44.7022 358.831 44.7564 358.617 44.8664C358.527 44.9002 358.442 44.9461 358.365 45.0029H358.313C357.683 45.4229 357.557 46.1474 357.557 47.2604V165.658C357.649 167.237 358.104 168.773 358.885 170.147C359.666 171.522 360.753 172.698 362.061 173.586L467.975 235.368L476.123 240.24C476.447 240.411 476.806 240.504 477.173 240.513C477.49 240.51 477.803 240.445 478.095 240.321C478.387 240.197 478.652 240.017 478.874 239.791C479.096 239.565 479.272 239.297 479.391 239.003C479.51 238.709 479.569 238.394 479.567 238.077V119.7C479.475 118.123 479.02 116.588 478.239 115.215C477.458 113.842 476.371 112.668 475.062 111.783L361.011 45.2654C360.501 44.9372 359.915 44.7456 359.31 44.7089ZM359.31 43.6589C360.101 43.6942 360.869 43.9368 361.536 44.3624L475.65 110.869C477.118 111.845 478.338 113.151 479.211 114.683C480.085 116.214 480.588 117.929 480.68 119.689V238.077C480.684 238.531 480.598 238.982 480.428 239.404C480.257 239.825 480.005 240.209 479.686 240.533C479.367 240.856 478.988 241.114 478.569 241.291C478.15 241.468 477.701 241.56 477.246 241.563C476.693 241.562 476.148 241.425 475.661 241.164L467.471 236.26L361.568 174.489C360.098 173.512 358.877 172.205 358.004 170.671C357.131 169.138 356.628 167.421 356.538 165.658V47.3024C356.453 46.717 356.521 46.1196 356.734 45.5679C356.948 45.0162 357.3 44.5287 357.756 44.1524C358.222 43.8271 358.774 43.648 359.342 43.6379L359.31 43.6589Z" fill="#ED5AA0"/>
<path d="M361.547 44.3625L475.65 110.87C477.125 111.813 478.338 113.113 479.178 114.65L485.552 110.901C484.729 109.383 483.528 108.103 482.066 107.184L367.951 40.677C367.43 40.2941 366.812 40.0629 366.167 40.0092C365.523 39.9554 364.875 40.0812 364.298 40.3725C363.405 40.929 359.237 43.3335 358.187 43.911C358.74 43.7028 359.337 43.6351 359.923 43.7139C360.51 43.7927 361.067 44.0155 361.547 44.3625Z" fill="#ED5AA0"/>
<path opacity="0.4" d="M361.547 44.3625L475.65 110.87C477.125 111.813 478.338 113.113 479.178 114.65L485.552 110.901C484.729 109.383 483.528 108.103 482.066 107.184L367.951 40.677C367.43 40.2941 366.812 40.0629 366.167 40.0092C365.523 39.9554 364.875 40.0812 364.298 40.3725C363.405 40.929 359.237 43.3335 358.187 43.911C358.74 43.7028 359.337 43.6351 359.923 43.7139C360.51 43.7927 361.067 44.0155 361.547 44.3625Z" fill="white"/>
<path d="M471.45 150.402C471.45 151.536 470.61 151.987 469.57 151.399L460.33 146.149C459.792 145.81 459.341 145.347 459.017 144.8C458.692 144.252 458.501 143.635 458.461 142.999C458.461 141.855 459.301 141.414 460.33 141.949L469.57 147.199C470.119 147.542 470.576 148.012 470.903 148.57C471.23 149.128 471.418 149.756 471.45 150.402Z" fill="#455A64"/>
<path d="M455.899 141.54C455.899 142.684 455.059 143.125 454.02 142.537L444.78 137.287C444.241 136.948 443.791 136.485 443.466 135.938C443.141 135.39 442.951 134.773 442.911 134.137C442.911 132.993 443.751 132.552 444.78 133.087L454.02 138.337C454.568 138.68 455.025 139.15 455.353 139.708C455.68 140.266 455.867 140.894 455.899 141.54Z" fill="#455A64"/>
<path d="M440.317 132.678C440.317 133.822 439.477 134.263 438.438 133.728L429.198 128.478C428.659 128.138 428.209 127.676 427.884 127.128C427.559 126.58 427.369 125.963 427.329 125.328C427.329 124.183 428.169 123.742 429.198 124.278L438.438 129.528C438.979 129.866 439.432 130.328 439.759 130.875C440.086 131.423 440.277 132.041 440.317 132.678Z" fill="#455A64"/>
<path d="M424.735 123.816C424.735 124.96 423.895 125.401 422.856 124.866L413.616 119.616C413.077 119.276 412.627 118.814 412.302 118.266C411.977 117.718 411.787 117.101 411.747 116.466C411.747 115.321 412.587 114.88 413.616 115.416L422.856 120.666C423.397 121.004 423.85 121.466 424.177 122.013C424.504 122.561 424.695 123.179 424.735 123.816Z" fill="#455A64"/>
<path d="M409.153 114.954C409.153 116.098 408.313 116.539 407.274 116.004L398.044 110.754C397.503 110.416 397.05 109.954 396.724 109.406C396.397 108.859 396.205 108.241 396.165 107.604C396.165 106.459 397.005 106.018 398.034 106.554L407.274 111.804C407.815 112.142 408.268 112.604 408.595 113.151C408.922 113.699 409.113 114.317 409.153 114.954Z" fill="#455A64"/>
<path d="M393.571 106.05C393.571 107.194 392.731 107.635 391.692 107.047L382.462 101.797C381.92 101.461 381.466 100.999 381.139 100.451C380.812 99.9031 380.621 99.2845 380.583 98.6474C380.583 97.5134 381.423 97.0619 382.462 97.5974L391.692 102.847C392.24 103.19 392.697 103.66 393.025 104.218C393.352 104.776 393.539 105.404 393.571 106.05Z" fill="#455A64"/>
<path d="M378 97.2299C378 98.3744 377.16 98.8154 376.12 98.2799L366.891 93.0299C366.349 92.6935 365.895 92.2319 365.568 91.6837C365.241 91.1356 365.05 90.5171 365.011 89.8799C365.011 88.7459 365.851 88.2945 366.891 88.8825L376.12 94.1325C376.655 94.4651 377.103 94.9188 377.43 95.4569C377.756 95.995 377.952 96.6024 378 97.2299Z" fill="#455A64"/>
<path d="M465.076 158.55L463.375 157.584C460.719 156.082 458.556 157.174 458.556 160.041C458.675 161.65 459.17 163.208 460.002 164.591C460.834 165.973 461.978 167.141 463.344 168L465.15 169.05C467.796 170.593 469.938 169.48 469.938 166.572C469.826 164.944 469.326 163.367 468.48 161.971C467.634 160.576 466.467 159.403 465.076 158.55Z" fill="#E0E0E0"/>
<path d="M465.076 176.484L463.375 175.518C460.719 174.016 458.556 175.108 458.556 177.975C458.675 179.585 459.17 181.145 460.002 182.529C460.833 183.913 461.978 185.083 463.344 185.944L465.108 186.994C467.754 188.538 469.896 187.425 469.896 184.516C469.79 182.891 469.297 181.314 468.459 179.917C467.621 178.52 466.461 177.343 465.076 176.484Z" fill="#E0E0E0"/>
<path d="M465.076 212.373L463.375 211.417C460.719 209.905 458.556 211.008 458.556 213.864C458.673 215.475 459.168 217.035 460 218.42C460.831 219.804 461.977 220.973 463.344 221.833L465.108 222.883C467.754 224.416 469.896 223.303 469.896 220.395C469.788 218.771 469.295 217.196 468.457 215.801C467.618 214.406 466.46 213.231 465.076 212.373Z" fill="#E0E0E0"/>
<path d="M449.484 149.667L447.783 148.711C445.126 147.199 442.963 148.302 442.963 151.158C443.081 152.769 443.575 154.329 444.407 155.714C445.239 157.098 446.384 158.267 447.751 159.127L449.515 160.177C452.161 161.71 454.303 160.597 454.303 157.689C454.196 156.065 453.702 154.49 452.864 153.095C452.026 151.7 450.867 150.525 449.484 149.667Z" fill="#E0E0E0"/>
<path d="M449.484 167.622L447.783 166.656C445.126 165.144 442.963 166.246 442.963 169.102C443.081 170.713 443.575 172.274 444.407 173.658C445.239 175.042 446.384 176.212 447.751 177.072L449.515 178.122C452.161 179.655 454.303 178.542 454.303 175.633C454.197 174.011 453.703 172.437 452.865 171.043C452.027 169.65 450.867 168.477 449.484 167.622Z" fill="#E0E0E0"/>
<path d="M449.484 203.511L447.783 202.545C445.126 201.033 442.963 202.135 442.963 205.002C443.083 206.611 443.578 208.169 444.409 209.552C445.241 210.934 446.386 212.102 447.751 212.961L449.515 214.011C452.161 215.544 454.303 214.431 454.303 211.522C454.197 209.9 453.703 208.326 452.865 206.932C452.027 205.539 450.867 204.366 449.484 203.511Z" fill="#E0E0E0"/>
<path d="M433.891 140.805L432.19 139.839C429.534 138.337 427.371 139.429 427.371 142.296C427.49 143.905 427.985 145.463 428.817 146.846C429.649 148.228 430.793 149.396 432.159 150.255L433.923 151.305C436.569 152.838 438.711 151.735 438.711 148.827C438.602 147.203 438.108 145.629 437.27 144.234C436.432 142.839 435.274 141.663 433.891 140.805Z" fill="#E0E0E0"/>
<path d="M433.891 158.749L432.19 157.783C429.534 156.282 427.371 157.374 427.371 160.24C427.49 161.851 427.985 163.411 428.817 164.795C429.648 166.179 430.793 167.349 432.159 168.21L433.923 169.26C436.569 170.803 438.711 169.69 438.711 166.782C438.602 165.157 438.108 163.581 437.27 162.184C436.432 160.787 435.274 159.61 433.891 158.749Z" fill="#E0E0E0"/>
<path d="M433.891 194.638L432.19 193.672C429.534 192.171 427.371 193.273 427.371 196.129C427.49 197.74 427.985 199.3 428.817 200.684C429.648 202.068 430.793 203.238 432.159 204.099L433.923 205.149C436.569 206.682 438.711 205.569 438.711 202.66C438.601 201.037 438.106 199.463 437.268 198.069C436.43 196.674 435.273 195.498 433.891 194.638Z" fill="#E0E0E0"/>
<path d="M418.299 131.932L416.598 130.977C413.941 129.465 411.778 130.567 411.778 133.423C411.896 135.034 412.39 136.595 413.222 137.979C414.054 139.364 415.199 140.533 416.566 141.393L418.33 142.443C420.976 143.976 423.118 142.863 423.118 139.954C423.008 138.331 422.514 136.757 421.676 135.363C420.838 133.968 419.68 132.792 418.299 131.932Z" fill="#E0E0E0"/>
<path d="M418.299 149.887L416.598 148.921C413.941 147.409 411.778 148.512 411.778 151.368C411.896 152.979 412.39 154.539 413.222 155.924C414.054 157.308 415.199 158.477 416.566 159.337L418.33 160.387C420.976 161.92 423.118 160.807 423.118 157.899C423.01 156.277 422.516 154.704 421.678 153.31C420.84 151.917 419.681 150.744 418.299 149.887Z" fill="#E0E0E0"/>
<path d="M401.856 137.109C401.856 137.109 397.855 142.191 397.855 146.275C397.855 149.268 399.651 152.712 401.856 153.961C404.061 155.211 405.856 153.814 405.856 150.811C405.856 146.748 401.856 137.109 401.856 137.109Z" fill="#ED5AA0"/>
<path d="M386.253 128.226C386.253 128.226 382.2 133.35 382.2 137.392C382.2 140.385 383.995 143.829 386.2 145.078C388.405 146.328 390.201 144.931 390.201 141.928C390.253 137.854 386.253 128.226 386.253 128.226Z" fill="#ED5AA0"/>
<path opacity="0.1" d="M386.253 128.226C386.253 128.226 382.2 133.35 382.2 137.392C382.2 140.385 383.995 143.829 386.2 145.078C388.405 146.328 390.201 144.931 390.201 141.928C390.253 137.854 386.253 128.226 386.253 128.226Z" fill="white"/>
<path d="M370.65 119.343C370.65 119.343 366.649 124.425 366.649 128.509C366.649 131.502 368.434 134.935 370.65 136.195C372.865 137.455 374.64 136.048 374.64 133.045C374.661 128.971 370.65 119.343 370.65 119.343Z" fill="#ED5AA0"/>
<path opacity="0.2" d="M370.65 119.343C370.65 119.343 366.649 124.425 366.649 128.509C366.649 131.502 368.434 134.935 370.65 136.195C372.865 137.455 374.64 136.048 374.64 133.045C374.661 128.971 370.65 119.343 370.65 119.343Z" fill="white"/>
<path d="M464.236 190.512C464.236 190.512 460.236 195.604 460.236 199.689C460.236 202.671 462.021 206.115 464.236 207.375C466.452 208.635 468.237 207.217 468.237 204.225C468.237 200.151 464.236 190.512 464.236 190.512Z" fill="#ED5AA0"/>
<path opacity="0.4" d="M464.236 190.512C464.236 190.512 460.236 195.604 460.236 199.689C460.236 202.671 462.021 206.115 464.236 207.375C466.452 208.635 468.237 207.217 468.237 204.225C468.237 200.151 464.236 190.512 464.236 190.512Z" fill="white"/>
<path d="M448.633 181.65C448.633 181.65 444.633 186.732 444.633 190.827C444.633 193.809 446.428 197.253 448.633 198.502C450.838 199.752 452.634 198.355 452.634 195.352C452.634 191.268 448.633 181.65 448.633 181.65Z" fill="#ED5AA0"/>
<path opacity="0.6" d="M448.633 181.65C448.633 181.65 444.633 186.732 444.633 190.827C444.633 193.809 446.428 197.253 448.633 198.502C450.838 199.752 452.634 198.355 452.634 195.352C452.634 191.268 448.633 181.65 448.633 181.65Z" fill="white"/>
<path d="M433.03 172.746C433.03 172.746 429.04 177.828 429.04 181.912C429.04 184.905 430.825 188.349 433.03 189.598C435.235 190.848 437.031 189.451 437.031 186.448C437.031 182.374 433.03 172.746 433.03 172.746Z" fill="#ED5AA0"/>
<path opacity="0.8" d="M433.03 172.746C433.03 172.746 429.04 177.828 429.04 181.912C429.04 184.905 430.825 188.349 433.03 189.598C435.235 190.848 437.031 189.451 437.031 186.448C437.031 182.374 433.03 172.746 433.03 172.746Z" fill="white"/>
<path d="M418.299 167.832L416.598 166.866C413.941 165.354 411.778 166.456 411.778 169.323C411.897 170.932 412.393 172.49 413.224 173.873C414.056 175.255 415.201 176.423 416.566 177.282L418.33 178.332C420.976 179.865 423.118 178.752 423.118 175.843C423.01 174.221 422.516 172.648 421.678 171.255C420.84 169.861 419.681 168.688 418.299 167.832Z" fill="#E0E0E0"/>
<path d="M418.299 185.776L416.598 184.81C413.941 183.298 411.778 184.401 411.778 187.267C411.897 188.876 412.393 190.435 413.224 191.817C414.056 193.2 415.201 194.367 416.566 195.226L418.33 196.276C420.976 197.809 423.118 196.696 423.118 193.788C423.01 192.166 422.516 190.593 421.678 189.199C420.84 187.806 419.681 186.633 418.299 185.776Z" fill="#E0E0E0"/>
<path d="M402.706 123.07L401.005 122.104C398.338 120.592 396.186 121.695 396.186 124.561C396.305 126.17 396.8 127.729 397.632 129.111C398.464 130.494 399.608 131.661 400.974 132.52L402.738 133.57C405.384 135.103 407.526 134.001 407.526 131.082C407.417 129.46 406.923 127.887 406.085 126.493C405.247 125.1 404.089 123.927 402.706 123.07Z" fill="#E0E0E0"/>
<path d="M402.706 158.959L401.005 157.993C398.338 156.492 396.186 157.584 396.186 160.45C396.305 162.061 396.8 163.621 397.632 165.005C398.463 166.389 399.608 167.559 400.974 168.42L402.738 169.47C405.384 171.013 407.526 169.9 407.526 166.992C407.417 165.367 406.923 163.791 406.085 162.394C405.247 160.997 404.089 159.82 402.706 158.959Z" fill="#E0E0E0"/>
<path d="M402.706 176.904L401.005 175.938C398.338 174.436 396.186 175.539 396.186 178.395C396.305 180.005 396.8 181.565 397.632 182.949C398.463 184.333 399.608 185.503 400.974 186.364L402.738 187.414C405.384 188.958 407.526 187.845 407.526 184.936C407.417 183.311 406.923 181.735 406.085 180.339C405.247 178.942 404.089 177.765 402.706 176.904Z" fill="#E0E0E0"/>
<path d="M387.114 114.198L385.413 113.242C382.746 111.73 380.593 112.833 380.593 115.689C380.711 117.3 381.205 118.86 382.037 120.245C382.869 121.629 384.014 122.798 385.381 123.658L387.145 124.708C389.791 126.241 391.933 125.128 391.933 122.22C391.823 120.597 391.329 119.023 390.491 117.628C389.653 116.233 388.495 115.058 387.114 114.198Z" fill="#E0E0E0"/>
<path d="M387.114 150.15L385.413 149.184C382.746 147.672 380.593 148.774 380.593 151.641C380.709 153.247 381.2 154.804 382.026 156.186C382.852 157.568 383.99 158.737 385.35 159.6L387.114 160.65C389.76 162.183 391.902 161.07 391.902 158.161C391.797 156.542 391.308 154.971 390.475 153.578C389.643 152.185 388.49 151.01 387.114 150.15Z" fill="#E0E0E0"/>
<path d="M387.114 168L385.413 167.034C382.746 165.522 380.593 166.624 380.593 169.491C380.709 171.097 381.2 172.654 382.026 174.036C382.852 175.418 383.99 176.587 385.35 177.45L387.114 178.5C389.76 180.033 391.902 178.92 391.902 176.011C391.797 174.392 391.308 172.821 390.475 171.428C389.643 170.035 388.49 168.86 387.114 168Z" fill="#E0E0E0"/>
<path d="M371.521 105.336L369.82 104.37C367.153 102.858 365.001 103.96 365.001 106.827C365.12 108.436 365.615 109.994 366.447 111.377C367.279 112.759 368.423 113.927 369.789 114.786L371.553 115.836C374.199 117.369 376.341 116.256 376.341 113.347C376.232 111.725 375.738 110.152 374.9 108.759C374.062 107.365 372.904 106.192 371.521 105.336Z" fill="#E0E0E0"/>
<path d="M371.521 141.225L369.82 140.259C367.153 138.757 365.001 139.849 365.001 142.716C365.12 144.326 365.615 145.886 366.447 147.27C367.278 148.654 368.423 149.824 369.789 150.685L371.553 151.735C374.199 153.279 376.341 152.166 376.341 149.257C376.232 147.632 375.738 146.056 374.9 144.66C374.062 143.263 372.904 142.086 371.521 141.225Z" fill="#E0E0E0"/>
<path d="M371.521 159.169L369.82 158.203C367.153 156.702 365.001 157.794 365.001 160.66C365.12 162.271 365.615 163.831 366.447 165.215C367.278 166.599 368.423 167.769 369.789 168.63L371.553 169.68C374.199 171.223 376.341 170.11 376.341 167.202C376.232 165.577 375.738 164.001 374.9 162.604C374.062 161.208 372.904 160.03 371.521 159.169Z" fill="#E0E0E0"/>
<path d="M470.82 130.693L365.022 68.6909V57.4244L470.82 119.416V130.693Z" fill="#ED5AA0"/>
<path d="M470.82 139.65C470.724 139.652 470.629 139.627 470.547 139.577L364.76 77.6265C364.693 77.5963 364.633 77.5523 364.584 77.4975C364.535 77.4426 364.498 77.3782 364.476 77.3082C364.453 77.2382 364.446 77.1643 364.454 77.0913C364.462 77.0183 364.485 76.9477 364.522 76.8842C364.559 76.8207 364.609 76.7657 364.668 76.7226C364.728 76.6796 364.796 76.6495 364.867 76.6344C364.939 76.6192 365.014 76.6193 365.085 76.6347C365.157 76.6501 365.225 76.6803 365.285 76.7235L471.083 138.705C471.2 138.777 471.284 138.892 471.318 139.026C471.351 139.159 471.331 139.3 471.261 139.419C471.213 139.492 471.147 139.551 471.07 139.591C470.993 139.632 470.907 139.652 470.82 139.65Z" fill="#E0E0E0"/>
<path d="M155.4 35.7C155.956 35.5041 156.552 35.4438 157.136 35.5242C157.72 35.6045 158.277 35.8232 158.76 36.162L375.721 161.406C377.186 162.364 378.404 163.653 379.277 165.169C380.151 166.684 380.656 168.385 380.751 170.132V375.48C380.809 376.09 380.714 376.704 380.474 377.267C380.233 377.83 379.856 378.324 379.375 378.704C380.236 378.137 387.859 373.832 388.825 373.275C389.329 372.908 389.728 372.415 389.982 371.846C390.237 371.277 390.337 370.651 390.274 370.031V164.682C390.18 162.931 389.672 161.228 388.792 159.711C387.913 158.194 386.686 156.908 385.213 155.957L168.231 30.6495C167.713 30.2765 167.105 30.0495 166.47 29.9923C165.834 29.935 165.195 30.0496 164.619 30.324C163.8 30.807 157.185 34.566 155.4 35.7Z" fill="#F0F0F0"/>
<path d="M375.721 161.406L158.76 36.1201C155.967 34.5136 153.709 35.8156 153.709 39.0286V244.388C153.804 246.137 154.311 247.839 155.189 249.356C156.067 250.872 157.29 252.159 158.76 253.113L375.721 378.399C378.504 380.006 380.761 378.704 380.761 375.491V170.1C380.66 168.358 380.152 166.663 379.276 165.153C378.401 163.643 377.183 162.36 375.721 161.406Z" fill="white"/>
<path d="M379.281 165.176L388.731 159.705C389.647 161.208 390.161 162.922 390.222 164.682V370.031C390.285 370.651 390.184 371.277 389.93 371.846C389.676 372.415 389.277 372.908 388.773 373.275C387.849 373.831 380.226 378.137 379.323 378.704C379.803 378.324 380.181 377.83 380.421 377.267C380.661 376.704 380.757 376.089 380.698 375.48V170.1C380.645 168.366 380.158 166.673 379.281 165.176Z" fill="#E0E0E0"/>
<path opacity="0.15" d="M379.281 165.176L388.731 159.705C389.647 161.208 390.161 162.922 390.222 164.682V370.031C390.285 370.651 390.184 371.277 389.93 371.846C389.676 372.415 389.277 372.908 388.773 373.275C387.849 373.831 380.226 378.137 379.323 378.704C379.803 378.324 380.181 377.83 380.421 377.267C380.661 376.704 380.757 376.089 380.698 375.48V170.1C380.645 168.366 380.158 166.673 379.281 165.176Z" fill="black"/>
<path d="M156.45 37.8C156.009 37.8 155.988 38.9445 155.988 39.0705V244.387C156.082 245.728 156.482 247.029 157.155 248.191C157.828 249.354 158.758 250.348 159.873 251.097L376.887 376.383C377.199 376.596 377.561 376.726 377.937 376.761C378.388 376.761 378.399 375.616 378.399 375.49V170.1C378.305 168.759 377.907 167.458 377.236 166.294C376.565 165.129 375.638 164.133 374.524 163.38L157.594 38.136C157.28 37.9272 156.92 37.7975 156.544 37.758M156.544 35.4375C157.343 35.4659 158.121 35.701 158.802 36.12L375.721 161.406C377.189 162.364 378.41 163.654 379.286 165.172C380.161 166.689 380.667 168.392 380.761 170.142V375.49C380.761 377.769 379.627 379.092 377.968 379.092C377.171 379.063 376.396 378.824 375.721 378.399L158.76 253.113C157.29 252.159 156.067 250.872 155.189 249.356C154.311 247.839 153.804 246.137 153.709 244.387V39.0285C153.709 36.75 154.854 35.4375 156.502 35.4375H156.544Z" fill="#E0E0E0"/>
<path d="M219.45 148.25C221.812 152.177 222.453 155.852 226.8 156.555C231.147 157.259 236.323 157.08 237.583 156.692C238.843 156.303 238.108 151.694 238.108 151.694C238.108 151.694 242.088 161.144 240.513 166.814C239.347 163.349 238.612 161.721 235.851 160.451C233.089 159.18 227.451 158.004 225.739 159.999C224.028 161.994 222.516 168.578 215.512 165.249L219.45 148.25Z" fill="#ED5AA0"/>
<path d="M315 203.438C312.648 204.645 312.008 207.585 307.65 203.249C303.791 199.383 300.188 195.268 296.866 190.932C295.606 189.074 296.352 185.336 296.352 185.336C295.102 187.104 294.241 189.116 293.825 191.241C293.409 193.365 293.447 195.554 293.937 197.663C295.103 195.563 295.837 194.775 298.61 196.697C301.382 198.618 307.01 203.963 308.721 207.921C310.433 211.88 311.945 220.227 318.938 224.942L315 203.438Z" fill="#ED5AA0"/>
<path d="M275.163 300.689C273.346 281.789 276.759 278.418 279.73 266.417C282.25 256.221 281.83 249.921 279.216 235.967C276.601 222.012 283.941 223.367 290.052 209.318C296.163 195.269 294.619 187.614 298.273 179.561C301.927 171.507 320.565 176.999 328.629 172.599C336.693 168.2 346.972 169.176 351.529 175.371C357.021 182.847 355.866 192.875 347.896 198.587C339.927 204.299 331.096 192.465 325.983 194.051C331.233 197.81 328.849 201.726 328.849 201.726C328.849 201.726 337.848 223.692 339.475 225.876C341.103 228.06 340.242 234.276 340.242 234.276C340.242 234.276 360.528 214.568 360.528 191.447C360.528 168.326 342.678 160.734 332.535 164.441C322.392 168.147 316.018 170.352 303.744 166.436C291.469 162.519 286.944 139.083 267.235 127.712C247.527 116.34 243.012 134.537 230.737 124.278C218.463 114.02 212.047 104.423 201.936 89.0401C191.824 73.6576 173.953 60.6166 173.953 83.7901C173.953 106.964 194.25 149.919 194.25 149.919C194.25 149.919 193.074 141.582 194.701 141.32C196.329 141.057 204.865 130.043 204.865 130.043C204.865 130.043 203.301 123.953 208.509 126.189C203.374 118.682 194.565 120.351 186.595 105.431C178.626 90.5101 177.471 79.1806 182.962 78.0256C187.519 77.0806 197.809 87.9691 205.863 101.682C213.916 115.395 232.564 131.418 236.218 143.682C239.872 155.946 238.318 161.795 244.44 182.931C250.561 204.068 257.859 211.092 255.276 222.086C252.693 233.079 250.677 237.489 252.367 250.593C254.394 266.249 258.751 273.336 256.935 290.126C262.825 288.95 268.894 292.089 275.163 300.689Z" fill="#ED5AA0"/>
<path opacity="0.4" d="M275.163 300.689C273.346 281.789 276.759 278.418 279.73 266.417C282.25 256.221 281.83 249.921 279.216 235.967C276.601 222.012 283.941 223.367 290.052 209.318C296.163 195.269 294.619 187.614 298.273 179.561C301.927 171.507 320.565 176.999 328.629 172.599C336.693 168.2 346.972 169.176 351.529 175.371C357.021 182.847 355.866 192.875 347.896 198.587C339.927 204.299 331.096 192.465 325.983 194.051C331.233 197.81 328.849 201.726 328.849 201.726C328.849 201.726 337.848 223.692 339.475 225.876C341.103 228.06 340.242 234.276 340.242 234.276C340.242 234.276 360.528 214.568 360.528 191.447C360.528 168.326 342.678 160.734 332.535 164.441C322.392 168.147 316.018 170.352 303.744 166.436C291.469 162.519 286.944 139.083 267.235 127.712C247.527 116.34 243.012 134.537 230.737 124.278C218.463 114.02 212.047 104.423 201.936 89.0401C191.824 73.6576 173.953 60.6166 173.953 83.7901C173.953 106.964 194.25 149.919 194.25 149.919C194.25 149.919 193.074 141.582 194.701 141.32C196.329 141.057 204.865 130.043 204.865 130.043C204.865 130.043 203.301 123.953 208.509 126.189C203.374 118.682 194.565 120.351 186.595 105.431C178.626 90.5101 177.471 79.1806 182.962 78.0256C187.519 77.0806 197.809 87.9691 205.863 101.682C213.916 115.395 232.564 131.418 236.218 143.682C239.872 155.946 238.318 161.795 244.44 182.931C250.561 204.068 257.859 211.092 255.276 222.086C252.693 233.079 250.677 237.489 252.367 250.593C254.394 266.249 258.751 273.336 256.935 290.126C262.825 288.95 268.894 292.089 275.163 300.689Z" fill="white"/>
<path d="M303.744 170.52C316.785 171.969 324.481 170.174 335.685 166.688C346.888 163.202 355.309 171.413 358.092 182.438C360.087 190.334 357.598 204.225 351.529 212.31C345.46 220.395 340.2 222.054 340.2 222.054L333.007 204.477C333.007 204.477 341.334 208.677 347.182 204.876C353.031 201.075 357.808 193.2 356.16 182.564C354.511 171.927 344.767 165.827 335.685 168.462C326.602 171.098 318.916 173.145 303.744 170.52Z" fill="#ED5AA0"/>
<path d="M230.737 128.363C217.696 114.713 209.989 104.076 198.796 87.654C187.603 71.232 179.172 69.72 176.4 77.553C174.405 83.1495 176.893 99.918 182.962 115.007C189.031 130.095 194.25 137.75 194.25 137.75L200.445 128.237C195.008 123.957 190.52 118.594 187.267 112.487C181.408 101.892 176.694 88.599 178.342 79.8735C179.991 71.148 189.724 76.272 198.817 89.4075C207.91 102.543 215.565 113.474 230.737 128.363Z" fill="#ED5AA0"/>
<path d="M267.235 159.6C274.585 163.8 294.892 170.888 303.744 170.499C296.583 170.741 288.372 172.137 284.487 176.589C280.602 181.041 280.287 190.838 277.347 194.702C274.407 198.566 267.55 200.592 267.235 212.331C266.931 200.235 260.032 190.281 257.134 183.026C254.236 175.77 253.869 165.606 249.984 156.671C246.099 147.735 237.898 136.857 230.737 128.321C239.578 138.968 259.927 155.4 267.235 159.6Z" fill="#ED5AA0"/>
<path d="M266.038 291.827C264.075 290.658 261.844 290.015 259.56 289.958C259.56 258.983 257.008 256.263 255.36 251.213C253.638 245.889 253.722 242.729 254.614 242.004C255.507 241.28 258.037 248.85 261.103 250.793C263.739 252.473 267.214 252.893 267.214 248.85C267.214 252.914 268.474 254.468 270.574 255.57C274.323 257.523 277.714 254.268 278.607 256.011C279.499 257.754 278.743 260.211 276.318 262.479C273.892 264.747 272.496 266.459 272.496 297.434C270.647 295.233 268.46 293.341 266.017 291.827" fill="#ED5AA0"/>
<path d="M267.235 212.352C266.794 218.18 266.689 224.207 266.679 230.276C266.668 236.345 266.794 242.508 267.235 248.85C267.687 243.023 267.781 236.996 267.802 230.927C267.823 224.858 267.676 218.684 267.235 212.352Z" fill="#ED5AA0"/>
<path d="M312.9 213.392C314.275 221.792 321.604 229.425 329.259 230.538C336.913 231.651 341.974 225.75 340.599 217.35C339.223 208.95 331.894 201.317 324.24 200.214C316.585 199.112 311.493 205.023 312.9 213.392Z" fill="#ED5AA0"/>
<path opacity="0.8" d="M312.9 213.392C314.275 221.792 321.604 229.425 329.259 230.538C336.913 231.651 341.974 225.75 340.599 217.35C339.223 208.95 331.894 201.317 324.24 200.214C316.585 199.112 311.493 205.023 312.9 213.392Z" fill="white"/>
<path d="M221.55 160.65C220.174 167.423 212.845 166.646 205.191 158.907C197.536 151.169 192.454 139.43 193.84 132.657C195.226 125.885 202.545 126.672 210.199 134.4C217.854 142.128 222.978 153.92 221.55 160.65Z" fill="#ED5AA0"/>
<path opacity="0.8" d="M221.55 160.65C220.174 167.423 212.845 166.646 205.191 158.907C197.536 151.169 192.454 139.43 193.84 132.657C195.226 125.885 202.545 126.672 210.199 134.4C217.854 142.128 222.978 153.92 221.55 160.65Z" fill="white"/>
<path d="M369.674 409.028C369.674 400.512 375.301 391.986 386.557 385.487C409.069 372.488 445.578 372.488 468.101 385.487C479.356 391.986 484.984 400.502 484.984 409.028V416.903C484.984 425.429 479.356 433.944 468.101 440.444C445.578 453.443 409.069 453.443 386.557 440.444C375.291 433.944 369.674 425.429 369.674 416.903V409.028Z" fill="#263238"/>
<path d="M468.101 385.487C479.356 391.986 484.984 400.512 484.984 409.028C484.984 417.543 479.356 426.069 468.101 432.6C445.578 445.599 409.069 445.599 386.557 432.6C375.301 426.101 369.663 417.575 369.663 409.059C369.663 400.544 375.301 392.018 386.557 385.518C409.069 372.488 445.578 372.488 468.101 385.487Z" fill="#455A64"/>
<path d="M387.649 361.326C391.876 356.663 396.526 352.402 401.541 348.6C406.339 344.925 410.172 342.542 412.681 340.095C417.291 335.601 418.32 332.189 418.32 329.543C418.32 326.897 417.27 323.463 412.681 318.969C408.093 314.475 398.916 310.139 387.649 297.707C376.383 285.275 375.333 270.144 375.333 251.99C375.333 244.314 380.404 236.628 390.558 230.769C410.865 219.041 443.793 219.041 464.058 230.769C474.243 236.586 479.325 244.272 479.325 252C479.325 270.165 478.275 285.327 467.019 297.728C455.763 310.128 446.596 314.528 441.987 318.99C437.377 323.453 436.327 326.897 436.327 329.564C436.327 332.231 437.377 335.622 441.987 340.116C446.596 344.61 455.7 348.894 467.019 361.326C478.338 373.758 479.325 388.899 479.325 407.054C479.325 414.74 474.243 422.426 464.089 428.285C443.782 440.003 410.865 440.003 390.589 428.285C380.436 422.426 375.364 414.74 375.364 407.054C375.333 388.899 376.362 373.8 387.649 361.326Z" fill="#ED5AA0"/>
<path opacity="0.8" d="M387.649 361.326C391.876 356.663 396.526 352.402 401.541 348.6C406.339 344.925 410.172 342.542 412.681 340.095C417.291 335.601 418.32 332.189 418.32 329.543C418.32 326.897 417.27 323.463 412.681 318.969C408.093 314.475 398.916 310.139 387.649 297.707C376.383 285.275 375.333 270.144 375.333 251.99C375.333 244.314 380.404 236.628 390.558 230.769C410.865 219.041 443.793 219.041 464.058 230.769C474.243 236.586 479.325 244.272 479.325 252C479.325 270.165 478.275 285.327 467.019 297.728C455.763 310.128 446.596 314.528 441.987 318.99C437.377 323.453 436.327 326.897 436.327 329.564C436.327 332.231 437.377 335.622 441.987 340.116C446.596 344.61 455.7 348.894 467.019 361.326C478.338 373.758 479.325 388.899 479.325 407.054C479.325 414.74 474.243 422.426 464.089 428.285C443.782 440.003 410.865 440.003 390.589 428.285C380.436 422.426 375.364 414.74 375.364 407.054C375.333 388.899 376.362 373.8 387.649 361.326Z" fill="white"/>
<path opacity="0.8" d="M426.541 432.191C439.75 432.191 452.119 429.398 461.349 424.263C469.99 419.454 474.6 413.196 474.6 406.634C474.6 389.256 473.77 375.05 463.323 363.521C457.886 357.597 451.792 352.313 445.158 347.771C442.798 346.184 440.556 344.43 438.448 342.521C433.849 338.048 431.613 333.68 431.613 329.165C431.613 324.65 433.849 320.261 438.448 315.788C440.56 313.884 442.802 312.13 445.158 310.538C451.796 305.981 457.891 300.679 463.323 294.735C473.77 283.185 474.6 269.021 474.6 251.685C474.6 245.123 469.896 238.791 461.328 233.835C452.098 228.501 439.74 225.561 426.52 225.561C413.301 225.561 400.942 228.501 391.713 233.835C383.155 238.781 378.441 245.112 378.441 251.685C378.441 269.063 379.27 283.269 389.739 294.735C395.172 300.691 401.275 306.001 407.925 310.559C410.275 312.15 412.51 313.904 414.613 315.809C419.202 320.292 421.428 324.671 421.428 329.186C421.428 333.701 419.202 338.069 414.613 342.542C412.523 344.445 410.302 346.199 407.967 347.792C406.507 348.842 404.817 350.028 403.116 351.362C398.287 355.034 393.808 359.147 389.739 363.646C379.239 375.197 378.441 389.372 378.441 406.697C378.441 413.27 383.05 419.57 391.713 424.337C401.1 429.45 413.332 432.191 426.541 432.191Z" fill="white"/>
<path d="M369.674 246.645C369.674 238.129 375.301 229.614 386.557 223.114C409.069 210.115 445.578 210.115 468.101 223.114C479.356 229.614 484.984 238.129 484.984 246.645V254.53C484.984 263.046 479.356 271.561 468.101 278.061C445.578 291.07 409.069 291.07 386.557 278.061C375.291 271.561 369.674 263.046 369.674 254.53V246.645Z" fill="#263238"/>
<path d="M468.101 223.114C479.356 229.614 484.984 238.129 484.984 246.645C484.984 255.16 479.356 263.686 468.101 270.186C445.578 283.185 409.069 283.185 386.557 270.186C375.301 263.686 369.663 255.171 369.663 246.645C369.663 238.119 375.301 229.614 386.557 223.114C409.069 210.115 445.578 210.115 468.101 223.114Z" fill="#455A64"/>
<path d="M426.542 335.139C426.542 335.139 420.693 343.087 420.693 347.508C420.693 349.059 421.309 350.547 422.406 351.644C423.503 352.74 424.99 353.356 426.542 353.356C428.093 353.356 429.58 352.74 430.677 351.644C431.774 350.547 432.39 349.059 432.39 347.508C432.39 343.087 426.542 335.139 426.542 335.139Z" fill="#ED5AA0"/>
<path d="M384.5 377.695C385.718 373.18 389.75 368.823 396.522 365.347C413.102 356.884 439.971 356.884 456.54 365.347C463.344 368.823 467.355 373.18 468.563 377.695C469.865 382.462 471.713 391.933 471.713 406.098C471.713 411.999 467.303 417.9 458.483 422.394C440.843 431.392 412.283 431.392 394.622 422.394C385.802 417.9 381.392 411.999 381.402 406.098C381.392 391.933 383.25 382.462 384.5 377.695Z" fill="#ED5AA0"/>
<path opacity="0.2" d="M456.551 365.4C464.835 369.6 468.983 375.176 468.983 380.72C468.983 386.264 464.835 391.797 456.551 396.029C439.971 404.492 413.102 404.492 396.533 396.029C388.248 391.829 384.101 386.264 384.101 380.72C384.101 375.176 388.248 369.6 396.533 365.4C413.112 356.885 439.95 356.885 456.551 365.4Z" fill="white"/>
<path d="M359.299 447.132C350.973 451.941 339.475 451.248 326.749 443.908C301.339 429.208 280.738 393.561 280.738 364.224C280.738 349.524 285.894 339.255 294.22 334.446L307.702 326.655C316.029 321.856 327.537 322.549 340.252 329.878C365.662 344.578 386.263 380.226 386.263 409.563C386.263 424.263 381.108 434.542 372.781 439.351L359.299 447.132Z" fill="#ED5AA0"/>
<path opacity="0.3" d="M359.299 447.132C350.973 451.941 339.475 451.248 326.749 443.908C301.339 429.208 280.738 393.561 280.738 364.224C280.738 349.524 285.894 339.255 294.22 334.446L307.702 326.655C316.029 321.856 327.537 322.549 340.252 329.878C365.662 344.578 386.263 380.226 386.263 409.563C386.263 424.263 381.108 434.542 372.781 439.351L359.299 447.132Z" fill="white"/>
<path d="M347.319 448.896C351.285 448.954 355.194 447.957 358.649 446.008C366.923 441.231 371.469 431.057 371.469 417.354C371.469 388.479 351.13 353.23 326.119 338.793C319.095 334.74 312.406 332.682 306.169 332.682C302.204 332.623 298.294 333.619 294.84 335.569C286.566 340.347 282.009 350.521 282.009 364.224C282.009 393.099 302.358 428.348 327.369 442.785C334.383 446.838 341.082 448.896 347.266 448.896H347.319Z" fill="#FAFAFA"/>
<path d="M306.222 333.984C302.485 333.924 298.8 334.859 295.543 336.693C287.689 341.229 283.363 351.005 283.363 364.224C283.363 392.69 303.418 427.424 328.072 441.651C334.792 445.536 341.449 447.594 347.319 447.594C351.057 447.654 354.744 446.715 357.997 444.875C365.851 440.349 370.167 430.574 370.167 417.354C370.167 388.889 350.112 354.155 325.468 339.917C318.738 336.042 312.091 333.984 306.222 333.984ZM306.222 331.38C312.406 331.38 319.379 333.407 326.771 337.68C352.181 352.38 372.771 388.08 372.771 417.364C372.771 432.064 367.626 442.334 359.299 447.143C355.649 449.209 351.514 450.267 347.319 450.208C341.134 450.208 334.152 448.182 326.771 443.908C301.361 429.208 280.759 393.561 280.759 364.224C280.759 349.524 285.915 339.255 294.241 334.446C297.892 332.379 302.027 331.321 306.222 331.38Z" fill="#ED5AA0"/>
<path d="M333.291 368.729L342.825 374.231C343.068 374.404 343.267 374.632 343.406 374.896C343.545 375.161 343.619 375.454 343.623 375.753V425.25C343.623 425.838 343.266 426.111 342.825 425.859L333.291 420.347C333.048 420.173 332.849 419.945 332.71 419.681C332.571 419.416 332.497 419.123 332.493 418.824V369.327C332.493 368.739 332.85 368.466 333.291 368.729ZM310.716 355.688L320.25 361.2C320.492 361.377 320.69 361.607 320.829 361.873C320.967 362.139 321.042 362.433 321.048 362.733V412.262C321.048 412.85 320.691 413.123 320.25 412.86L310.716 407.358C310.473 407.185 310.274 406.957 310.135 406.692C309.996 406.428 309.922 406.134 309.918 405.836V356.297C309.918 355.709 310.275 355.436 310.716 355.688Z" fill="#455A64"/>
<path d="M112.413 379.817C111.752 388.154 111.311 394.338 111.437 395.766C111.847 399.789 113.714 403.523 116.687 406.266C121.044 410.729 124.142 412.503 129.549 416.357C128.835 418.457 117.684 418.625 114.482 417.155C109.822 414.945 105.311 412.433 100.979 409.637C96.5265 406.487 95.4555 404.565 95.2665 399.63C95.2665 399.011 94.7835 394.989 94.8255 394.716C94.7625 393.561 94.0695 387.293 93.1665 379.586L112.413 379.817Z" fill="#C8856A"/>
<path d="M138.411 424.2C138.695 424.2 138.926 427.434 137.267 428.684C135.366 430.133 129.917 432.359 122.934 430.994C115.952 429.629 112.34 427.193 109.683 424.694C107.027 422.195 103.32 418.572 100.233 417.659C97.3245 416.819 92.6416 414.834 91.7596 413.858C90.8776 412.881 91.2765 408.828 91.2765 408.828L138.411 424.2Z" fill="#263238"/>
<path d="M94.794 394.8C94.5068 394.915 94.2487 395.093 94.0381 395.32C93.8276 395.547 93.6698 395.817 93.576 396.112C93.2925 397.215 93.1875 398.654 92.5995 400.46C91.6659 403.65 91.2198 406.964 91.2765 410.287C91.518 412.387 97.8075 414.592 100.8 415.957C104.309 417.782 107.52 420.129 110.324 422.919C113.474 425.859 120.194 429.051 124.761 429.418C131.723 429.975 136.364 428.368 137.928 425.943C139.85 422.94 139.209 419.643 131.429 415.443C129.959 414.645 124.835 411.127 123.102 409.857C121.247 408.53 119.508 407.048 117.905 405.426C117.097 404.602 116.333 403.736 115.616 402.832C114.863 402.016 114.237 401.093 113.757 400.092C113.684 399.882 113.631 399.63 113.568 399.399C113.383 398.77 113.249 398.128 113.169 397.477C113.085 396.805 113.064 395.818 112.455 395.377C111.846 394.936 101.766 396.249 100.989 397.32C100.47 398.193 100.178 399.182 100.139 400.197C100.139 400.659 100.076 401.131 100.034 401.604C100.034 401.803 100.086 402.171 99.813 402.066C99.54 401.961 99.2985 401.247 99.2145 401.016C99.0255 400.481 98.9205 399.903 98.7105 399.367C98.5402 398.723 98.2361 398.122 97.818 397.604C96.558 396.386 95.256 396.553 94.899 396.112C94.899 396.007 94.815 395.146 94.794 394.8Z" fill="#37474F"/>
<path d="M131.859 415.59C121.716 415.59 118.367 423.539 117.684 427.382C119.927 428.403 122.314 429.072 124.761 429.366C131.723 429.923 136.658 428.316 138.212 425.912C140.028 423.087 138.842 418.782 131.859 415.59Z" fill="#FAFAFA"/>
<path d="M116.96 416.556C116.842 416.546 116.732 416.498 116.645 416.42C116.553 416.327 116.502 416.203 116.502 416.073C116.502 415.943 116.553 415.819 116.645 415.727C118.167 414.089 122.945 410.676 126.599 411.317C126.662 411.327 126.724 411.35 126.778 411.384C126.833 411.418 126.881 411.463 126.918 411.516C126.955 411.569 126.981 411.628 126.995 411.692C127.009 411.755 127.01 411.82 126.998 411.884C126.987 411.948 126.965 412.009 126.93 412.065C126.896 412.12 126.852 412.168 126.799 412.206C126.746 412.244 126.687 412.271 126.623 412.286C126.56 412.301 126.495 412.304 126.431 412.293C123.029 411.705 118.577 415.097 117.369 416.399C117.318 416.455 117.254 416.499 117.183 416.527C117.112 416.554 117.035 416.564 116.96 416.556Z" fill="#F5F5F5"/>
<path d="M112.77 413.7C112.656 413.69 112.549 413.642 112.466 413.564C112.419 413.518 112.382 413.463 112.357 413.403C112.331 413.342 112.318 413.277 112.318 413.212C112.318 413.146 112.331 413.082 112.357 413.021C112.382 412.961 112.419 412.906 112.466 412.86C113.988 411.222 118.766 407.799 122.42 408.45C122.548 408.476 122.662 408.55 122.736 408.658C122.811 408.766 122.84 408.898 122.819 409.028C122.807 409.092 122.783 409.153 122.748 409.208C122.713 409.263 122.667 409.311 122.613 409.348C122.559 409.385 122.499 409.411 122.435 409.424C122.371 409.438 122.305 409.439 122.241 409.427C118.85 408.839 114.387 412.241 113.19 413.543C113.134 413.596 113.069 413.638 112.996 413.665C112.924 413.692 112.847 413.704 112.77 413.7Z" fill="#F5F5F5"/>
<path d="M108.927 410.55C108.814 410.538 108.707 410.49 108.623 410.414C108.576 410.368 108.539 410.313 108.513 410.252C108.488 410.192 108.475 410.127 108.475 410.062C108.475 409.996 108.488 409.931 108.513 409.871C108.539 409.811 108.576 409.756 108.623 409.71C110.145 408.072 114.923 404.66 118.577 405.3C118.641 405.311 118.702 405.335 118.757 405.371C118.812 405.406 118.859 405.452 118.897 405.505C118.934 405.559 118.96 405.62 118.973 405.684C118.987 405.747 118.988 405.813 118.976 405.878C118.967 405.942 118.945 406.004 118.911 406.06C118.877 406.115 118.832 406.163 118.779 406.201C118.726 406.238 118.666 406.264 118.602 406.277C118.538 406.29 118.472 406.29 118.408 406.277C115.006 405.689 110.555 409.091 109.347 410.393C109.295 410.451 109.23 410.496 109.156 410.523C109.083 410.55 109.005 410.56 108.927 410.55Z" fill="#F5F5F5"/>
<path d="M105.168 407.4C105.113 407.4 105.059 407.389 105.008 407.367C104.958 407.345 104.912 407.314 104.874 407.274C104.827 407.228 104.79 407.173 104.765 407.113C104.74 407.053 104.727 406.988 104.727 406.922C104.727 406.857 104.74 406.792 104.765 406.732C104.79 406.671 104.827 406.616 104.874 406.571C106.974 404.25 112.025 401.531 115.668 402.171C115.798 402.193 115.913 402.266 115.989 402.373C116.064 402.481 116.095 402.614 116.072 402.743C116.05 402.873 115.977 402.988 115.87 403.064C115.763 403.14 115.63 403.17 115.5 403.148C112.224 402.57 107.457 405.174 105.599 407.243C105.545 407.302 105.478 407.348 105.403 407.376C105.328 407.403 105.247 407.412 105.168 407.4Z" fill="#F5F5F5"/>
<path d="M46.074 396.302L45.6541 376.667L66.6541 378.641L62.181 397.446C62.181 397.446 59.976 424.022 58.926 428.337C55.5765 442.281 44.226 436.653 42.924 429.272C42.063 424.358 46.074 396.302 46.074 396.302Z" fill="#C8856A"/>
<path d="M60.585 429.744C60.27 434.364 59.535 437.42 57.8655 440.108C56.196 442.796 53.109 443.625 50.001 442.796C46.893 441.966 42.9135 439.793 42.063 435.803C41.2125 431.813 40.719 429.062 41.4645 424.788L60.585 429.744Z" fill="#263238"/>
<path d="M46.0741 396.302C44.7931 396.144 45.0241 402.518 44.2576 408.723C43.3966 415.37 42.4096 418.005 41.6431 423.423C40.7611 429.66 41.7691 432.453 43.9006 436.254C46.0321 440.055 53.7076 443.835 57.5506 438.48C60.7006 434.102 60.8791 429.219 60.7006 422.993C60.6039 417.764 60.9552 412.537 61.7506 407.369C62.3491 402.339 63.3991 397.919 62.2861 397.415C61.9976 399.049 61.6155 400.665 61.1416 402.255C61.0156 402.602 60.5011 403.463 60.3226 402.161C60.2596 401.772 60.3961 400.88 60.3226 400.491C60.3078 400.152 60.189 399.827 59.9823 399.558C59.7756 399.289 59.4911 399.091 59.1676 398.99C57.4703 398.149 55.6013 397.715 53.7076 397.719C51.1981 397.719 49.0246 397.572 47.6176 398.276C46.7671 398.696 46.7776 399.504 46.6831 400.292C46.5886 401.079 46.5361 401.814 46.3156 401.615C45.8326 401.268 46.0741 396.302 46.0741 396.302Z" fill="#37474F"/>
<path d="M41.244 427.067C40.9721 430.403 41.7821 433.739 43.554 436.58C45.654 440.37 53.9805 444.182 57.834 438.816C59.7555 436.149 60.291 432.978 60.585 429.744C58.359 425.555 44.877 423.56 41.244 427.067Z" fill="#FAFAFA"/>
<path d="M57.855 422.919C57.8035 422.933 57.7491 422.933 57.6975 422.919C57.645 422.919 51.723 420.357 45.9165 421.638C45.7998 421.649 45.6832 421.616 45.5884 421.547C45.4937 421.478 45.4272 421.377 45.4015 421.263C45.3758 421.149 45.3926 421.029 45.4487 420.926C45.5048 420.823 45.5965 420.744 45.7065 420.704C51.849 419.349 57.8865 421.953 58.1175 422.058C58.231 422.115 58.3176 422.213 58.3589 422.333C58.4001 422.453 58.3926 422.584 58.338 422.699C58.29 422.781 58.2178 422.846 58.1314 422.885C58.0449 422.925 57.9484 422.936 57.855 422.919Z" fill="#F5F5F5"/>
<path d="M46.2 416.945C46.1087 416.936 46.022 416.9 45.951 416.843C45.8799 416.785 45.8277 416.707 45.801 416.619C45.7814 416.56 45.7737 416.497 45.7784 416.435C45.7831 416.373 45.8001 416.312 45.8284 416.256C45.8568 416.201 45.8958 416.151 45.9434 416.111C45.9909 416.07 46.046 416.04 46.1055 416.02C51.891 414.12 58.254 417.134 58.4955 417.27C58.6054 417.33 58.6871 417.431 58.7226 417.551C58.758 417.671 58.7443 417.801 58.6845 417.911C58.6244 418.02 58.524 418.102 58.4046 418.14C58.2851 418.177 58.1558 418.166 58.044 418.11C57.9915 418.11 51.744 415.159 46.3995 416.934C46.3348 416.953 46.2664 416.957 46.2 416.945Z" fill="#F5F5F5"/>
<path d="M46.5046 412.566C46.3941 412.559 46.2896 412.513 46.2094 412.437C46.1293 412.36 46.0786 412.258 46.0661 412.148C46.0535 412.038 46.0801 411.927 46.141 411.834C46.202 411.742 46.2935 411.674 46.3996 411.642C52.7626 409.427 58.8001 412.692 58.9996 412.85C59.0955 412.922 59.161 413.028 59.1832 413.146C59.2055 413.264 59.1829 413.386 59.1199 413.488C59.0569 413.591 58.9581 413.666 58.8426 413.699C58.7272 413.732 58.6034 413.722 58.4956 413.669C58.4956 413.669 52.6156 410.519 46.6936 412.545C46.6325 412.564 46.5683 412.571 46.5046 412.566Z" fill="#F5F5F5"/>
<path d="M46.8615 408.251C46.7731 408.238 46.6895 408.202 46.6194 408.147C46.5493 408.092 46.4952 408.019 46.4625 407.936C46.4221 407.816 46.4302 407.685 46.4852 407.571C46.5401 407.457 46.6376 407.369 46.7565 407.327C52.7205 405.164 59.22 408.534 59.4615 408.681C59.5153 408.713 59.5623 408.755 59.5999 408.805C59.6374 408.855 59.6648 408.911 59.6804 408.972C59.696 409.032 59.6995 409.095 59.6908 409.157C59.6821 409.219 59.6613 409.278 59.6295 409.332C59.5978 409.386 59.5558 409.433 59.5059 409.47C59.4561 409.508 59.3993 409.535 59.3388 409.551C59.2784 409.566 59.2154 409.57 59.1536 409.561C59.0918 409.553 59.0323 409.532 58.9785 409.5C58.926 409.5 52.6155 406.214 47.082 408.23C47.0109 408.252 46.9357 408.259 46.8615 408.251Z" fill="#EBEBEB"/>
<path d="M61.6666 230.507C56.1646 240.177 51.7336 248.357 50.2951 273.903C48.6781 302.757 48.9196 313.74 48.7831 317.226C48.6466 320.712 46.3576 327.096 44.415 344.243C42.4725 361.389 44.5201 402.959 44.5201 402.959C44.5201 402.959 45.8956 405.752 52.5736 406.392C58.7371 406.98 62.3491 404.849 62.3491 404.849C62.3491 404.849 72.1456 350.249 74.5606 339.959C76.9756 329.669 84.0106 295.701 84.0106 295.701L86.3311 328.094C86.3311 328.094 84.3781 337.544 86.1421 352.611C87.9061 367.679 92.5681 398.612 92.5681 398.612C92.5681 398.612 93.9961 402.738 101.882 403.316C106.231 403.754 110.6 402.691 114.261 400.302C114.261 400.302 115.406 334.856 115.532 317.804C115.658 300.752 116.666 256.452 111.395 231.168L61.6666 230.507Z" fill="#455A64"/>
<path d="M107.898 255.633C105.231 262.658 95.655 267.519 91.4655 268.475L86.3416 295.355V328.094L84.0001 295.701L89.7541 262.941C89.7541 262.941 101.399 262.217 107.898 255.633ZM68.1871 251.906C67.4836 254.678 66.8326 257.45 66.1501 260.232C65.4676 263.015 64.8061 265.797 64.0501 268.632C64.0375 265.746 64.2517 262.864 64.6905 260.012C65.0895 257.156 65.6671 254.331 66.3496 251.517C67.0445 248.711 67.9035 245.948 68.9221 243.243C69.9134 240.511 71.1984 237.896 72.7546 235.442C71.8516 238.193 71.0536 240.923 70.2871 243.674C69.5206 246.425 68.8591 249.134 68.1871 251.906ZM63.2835 246.54C62.328 248.21 61.4145 249.89 60.501 251.58L57.7921 256.725C57.9996 254.765 58.4656 252.841 59.178 251.003C59.8657 249.158 60.6978 247.371 61.6666 245.658C62.6435 243.952 63.7345 242.314 64.932 240.755C66.1293 239.183 67.4723 237.727 68.9431 236.408C68.0611 238.182 67.095 239.862 66.1395 241.532C65.184 243.201 64.218 244.871 63.2835 246.54ZM67.0741 324.45C68.8171 315.63 70.0771 306.705 71.2741 297.77C72.4711 288.834 73.6995 279.92 75.033 270.953C74.403 279.962 73.6785 288.96 72.702 297.938C71.7255 306.915 70.6021 315.893 68.8486 324.797C67.0951 333.701 65.1736 342.468 63.2101 351.299C61.2466 360.129 59.2306 368.907 57.0676 377.685C58.5236 368.774 60.0986 359.884 61.7926 351.015C63.5041 342.153 65.2891 333.27 67.0741 324.45ZM107.216 295.281L105.893 271.751C107.069 279.531 107.993 287.354 108.654 295.187C109.316 303.02 109.935 310.853 109.904 318.801C109.578 326.718 109.368 358.008 108.36 365.81C107.667 357.074 107.898 334.016 107.898 334.016C108.129 330.11 107.898 322.644 108.056 318.759C108.213 314.874 107.94 310.958 107.793 307.041C107.646 303.125 107.405 299.25 107.216 295.292V295.281Z" fill="#37474F"/>
<path d="M61.95 143.073C61.8975 146.338 64.2705 153.121 66.7275 157.059C68.775 160.356 69.7305 162.246 72.3345 165.112C72.5018 165.325 72.7086 165.503 72.9435 165.637C73.1707 165.745 73.417 165.805 73.668 165.816C75.2745 165.952 76.986 165.711 78.6135 165.7L85.2495 165.637C86.9258 165.664 88.6013 165.548 90.258 165.291C93.0386 164.77 95.6018 163.435 97.6226 161.456C99.6435 159.476 101.031 156.941 101.608 154.171C102.028 152.197 101.251 149.583 102.049 147.798C102.427 146.937 103.099 146.15 103.488 145.268C104.672 142.882 105.218 140.23 105.073 137.571C104.569 132.111 101.199 125.034 91.182 123.007C82.341 121.212 68.901 122.672 65.919 132.731C61.677 134.599 62.0655 139.198 61.95 143.073Z" fill="#263238"/>
<path d="M190.27 188.118C189.371 187.646 188.351 187.452 187.341 187.562C185.736 187.822 184.153 188.205 182.606 188.706C180.191 189.252 176.305 190.176 173.89 189.41C173.397 189.252 172.431 188.78 173.271 188.36C174.396 187.871 175.478 187.288 176.505 186.617C177.015 186.282 177.448 185.844 177.776 185.33C178.103 184.816 178.318 184.238 178.406 183.635C178.457 183.265 178.367 182.89 178.154 182.585C177.828 182.175 177.503 182.291 177.104 182.438C176.688 182.583 176.264 182.703 175.833 182.795C174.951 183.005 174.069 183.225 173.187 183.456C168.063 184.8 162.813 186.606 158.97 190.313C156.696 192.143 154.523 194.096 152.46 196.161C149.363 198.818 131.25 208.205 131.25 208.205C131.25 208.205 121.422 194.103 118.073 189.305C114.17 183.396 108.11 179.25 101.188 177.755L108.654 207.344C108.654 207.344 120.477 220.752 122.451 223.157C125.37 226.727 129.958 226.958 134.358 224.574C139.836 221.68 144.989 218.209 149.73 214.221C157.364 208.173 159.695 206.451 161.879 204.866C164.063 203.28 167.391 203.249 169.019 203.196C171.273 203.186 173.516 202.872 175.686 202.262C177.601 201.807 179.448 201.101 181.177 200.162C182.063 199.803 182.862 199.259 183.519 198.566C183.829 197.846 184.179 197.145 184.569 196.466C185.157 195.762 186.071 195.342 186.575 194.565C186.901 193.92 187.141 193.235 187.289 192.528C187.489 192.052 187.788 191.624 188.166 191.273C188.545 190.922 188.993 190.655 189.483 190.491C189.984 190.309 190.434 190.01 190.795 189.62C191.299 189 190.869 188.465 190.27 188.118Z" fill="#FFA8A7"/>
<path d="M99.12 176.18C105.189 178.028 109.137 177.786 114.387 183.813C119.637 189.84 132.573 206.651 132.573 206.651L148.964 197.999C148.935 201.449 149.993 204.821 151.988 207.638C155.222 211.785 156.335 211.785 156.335 211.785C156.335 211.785 143 221.687 137.55 224.7C132.101 227.714 129.15 228.543 127.187 227.934C125.223 227.325 121.328 223.734 115.868 216.92C110.408 210.105 101.168 198.02 101.168 198.02L99.12 176.18Z" fill="#EBEBEB"/>
<path d="M170.541 190.733C168.656 193.14 166.125 194.961 163.244 195.983C164.841 196.23 166.474 195.903 167.853 195.059C168.584 194.571 169.202 193.933 169.666 193.187C170.129 192.441 170.428 191.604 170.541 190.733Z" fill="#F28F8F"/>
<path d="M55.4295 243.705C52.2165 241.101 54.894 237.51 56.049 221.655C56.343 217.571 54.9465 207.438 54.9465 207.438C54.9465 207.438 60.9735 198.608 58.5375 178.889L72.3555 174.92L91.392 175.067L98.847 177.24C101.367 179.466 106.008 182.984 109.683 188.307C114.933 196.004 115.783 204.362 110.061 210.483C109.977 211.691 111.279 225.75 111.793 230.507C112.518 237.09 115.069 240.219 111.247 243.474C100.065 252.966 70.5915 253.628 55.4295 243.705Z" fill="#ED5AA0"/>
<path d="M69.951 162.005C68.9155 162.147 67.8609 162.03 66.8821 161.663C65.9033 161.297 65.031 160.692 64.344 159.905C61.383 156.755 61.0995 153.468 62.475 151.295C63.609 149.52 66.402 148.376 68.3655 149.583C70.329 150.791 70.518 151.914 71.316 153.374C72.0195 154.655 73.311 153.248 73.6155 152.397C73.78 151.864 73.851 151.306 73.8255 150.749C73.8255 149.583 73.8255 148.407 73.7415 147.231C75.0741 146.799 76.3212 146.138 77.427 145.278C80.0625 143.084 80.661 138.779 80.4615 135.555C85.029 137.414 90.3315 138.6 95.235 137.718C95.0355 137.172 94.836 136.668 94.626 136.08C96.0846 136.918 97.6044 137.645 99.1725 138.254C100.664 138.821 101.514 138.758 101.923 140.354C102.578 143.115 103.016 145.924 103.236 148.754C104.223 159.338 102.364 166.394 99.876 168.641C98.1645 170.195 94.983 171.234 91.182 171.024V175.014C91.182 175.014 102.133 186.239 88.1685 185.22C85.0593 184.956 82.0419 184.033 79.3172 182.512C76.5925 180.991 74.2229 178.908 72.366 176.4L72.2715 160.346C72.2715 160.346 72.0405 161.616 69.951 162.005Z" fill="#FFA8A7"/>
<path d="M92.8935 160.125C92.7144 160.923 92.2319 161.62 91.548 162.069C90.8641 162.518 90.0325 162.683 89.229 162.53C88.8305 162.457 88.4504 162.305 88.111 162.084C87.7715 161.863 87.4795 161.576 87.2518 161.241C87.0242 160.906 86.8654 160.529 86.7848 160.132C86.7043 159.735 86.7035 159.325 86.7825 158.928L92.8935 160.125Z" fill="#B16668"/>
<path d="M86.7615 159.926C86.8472 160.564 87.1317 161.159 87.5746 161.626C88.0175 162.093 88.5964 162.41 89.229 162.529C89.5767 162.587 89.9313 162.587 90.279 162.529C90.1444 161.724 89.7025 161.003 89.0463 160.517C88.3901 160.031 87.571 159.819 86.7615 159.926Z" fill="#F28F8F"/>
<path d="M100.222 142.097L96.1905 140.784C96.3593 140.256 96.7301 139.816 97.2218 139.561C97.7135 139.305 98.2863 139.254 98.8155 139.419C99.3518 139.595 99.7985 139.973 100.061 140.473C100.324 140.973 100.382 141.555 100.222 142.097Z" fill="#263238"/>
<path d="M85.3335 140.942L81.333 143.042C81.1737 142.793 81.0685 142.515 81.0241 142.223C80.9797 141.932 80.9972 141.634 81.0755 141.35C81.1537 141.065 81.291 140.801 81.4783 140.573C81.6656 140.345 81.8987 140.16 82.1625 140.028C82.7078 139.747 83.34 139.685 83.9294 139.855C84.5189 140.025 85.0212 140.413 85.3335 140.942Z" fill="#263238"/>
<path d="M106.281 144.522C106.249 145.118 106.028 145.688 105.651 146.15C105.522 146.319 105.436 146.517 105.399 146.727C105.286 148.193 105.051 149.647 104.695 151.074C104.244 152.25 103.246 154.119 99.981 154.277C99.4126 154.31 98.8424 154.281 98.28 154.193H98.154C97.6592 154.099 97.179 153.94 96.726 153.72H96.642L96.516 153.657L96.3585 153.563L96.2115 153.479L96.054 153.363L95.907 153.248C95.8044 153.173 95.7062 153.092 95.613 153.006C95.1113 152.539 94.6892 151.992 94.3635 151.389C93.513 149.898 93.513 147.788 92.2635 147.567H92.127C92.0746 147.562 92.0219 147.562 91.9695 147.567C90.363 147.63 90.7515 149.93 89.9955 151.589C89.2395 153.248 87.8955 154.907 84.4095 155.043H83.601C83.3154 155.035 83.0309 155.003 82.7505 154.949H82.4775L82.2255 154.886H82.0575C81.7205 154.787 81.3935 154.657 81.081 154.497L80.745 154.308C80.5379 154.176 80.3413 154.029 80.157 153.867C79.6806 153.44 79.2795 152.936 78.9705 152.376C78.4185 150.939 77.9934 149.456 77.7 147.945C77.6269 147.722 77.5169 147.512 77.3745 147.326C76.9265 146.917 76.6056 146.389 76.4505 145.803C76.409 145.509 76.4726 145.21 76.6301 144.958C76.7876 144.707 77.0289 144.519 77.3115 144.428C77.574 144.428 77.8575 144.333 78.1515 144.302C80.9595 143.824 83.824 143.778 86.646 144.165C89.397 144.785 90.3945 145.562 91.896 145.499C93.3975 145.436 94.1325 144.575 96.6105 143.724C99.2 143.099 101.874 142.9 104.527 143.136L105.325 143.189C105.609 143.276 105.855 143.453 106.028 143.694C106.201 143.935 106.29 144.226 106.281 144.522ZM88.725 146.622C88.4938 146.379 88.215 146.186 87.906 146.055L87.759 145.992H87.6855C87.557 145.929 87.4236 145.876 87.2865 145.835L86.9295 145.709C86.5429 145.587 86.1504 145.486 85.7535 145.404L85.281 145.31C84.8847 145.243 84.4851 145.197 84.084 145.173H83.811C81.1965 145.047 79.611 145.667 79.086 146.223C78.561 146.78 79.002 148.985 79.3485 150.119C79.3439 150.143 79.3439 150.168 79.3485 150.192V150.287C79.3485 150.423 79.4325 150.581 79.4955 150.738L79.6005 151.022C79.6635 151.179 79.7265 151.326 79.8105 151.494C79.8426 151.544 79.8706 151.597 79.8945 151.652L79.9575 151.746C79.9682 151.786 79.99 151.823 80.0205 151.851C80.0422 151.9 80.0705 151.946 80.1045 151.988L80.199 152.135L80.3145 152.292L80.4405 152.45C80.9049 152.978 81.4873 153.389 82.1404 153.65C82.7936 153.911 83.499 154.014 84.1995 153.951C84.8862 153.983 85.5718 153.868 86.2108 153.614C86.8498 153.361 87.4276 152.975 87.906 152.481C88.4655 151.821 88.8292 151.017 88.956 150.161C89.25 148.733 89.25 147.252 88.725 146.57V146.622ZM103.855 145.037C103.655 144.883 103.432 144.763 103.194 144.68C103.098 144.642 103 144.61 102.9 144.585H102.721H102.585H102.48H102.333C102.135 144.549 101.935 144.524 101.735 144.512H101.409H100.359C99.9612 144.534 99.565 144.58 99.1725 144.648C97.356 144.942 95.4975 145.793 95.0565 146.517C94.6155 147.242 94.857 148.712 95.2035 149.961C95.2854 150.248 95.3871 150.528 95.508 150.801V150.875C95.5099 150.903 95.5099 150.931 95.508 150.959V151.011V151.116L95.6235 151.316C95.6583 151.377 95.6968 151.437 95.739 151.494V151.557L95.823 151.673L95.907 151.778C96.3871 152.351 97.005 152.794 97.7028 153.064C98.4007 153.334 99.1557 153.422 99.897 153.321C100.559 153.294 101.207 153.126 101.798 152.828C102.437 152.424 102.97 151.873 103.352 151.221C103.734 150.569 103.954 149.834 103.992 149.079C104.286 147.714 104.443 145.457 103.855 144.984V145.037Z" fill="#37474F"/>
<path d="M97.65 154.791L91.7385 157.301L90.4785 149.846C90.6885 148.733 90.909 147.578 91.875 147.483L97.65 154.791Z" fill="#F28F8F"/>
<path d="M77.4795 145.289L68.3655 149.583C68.8665 149.888 69.3376 150.24 69.7725 150.633L77.7 147.147L77.4795 145.289Z" fill="#37474F"/>
<path d="M100.223 148.05C100.559 148.974 99.918 149.289 99.0255 149.604C98.133 149.919 97.335 150.129 96.999 149.205C96.8459 148.778 96.8688 148.307 97.0627 147.896C97.2567 147.486 97.6058 147.169 98.0333 147.016C98.4607 146.863 98.9316 146.886 99.3421 147.079C99.7527 147.273 100.069 147.623 100.223 148.05Z" fill="#263238"/>
<path d="M97.167 147.273C97.5655 147.045 97.998 146.881 98.448 146.79C98.8813 146.689 99.3284 146.661 99.771 146.706C100.244 146.759 100.706 146.89 101.136 147.095C101.136 147.095 101.189 147.2 101.136 147.2C100.736 147.141 100.333 147.106 99.9285 147.095C98.826 147.115 97.745 147.403 96.7785 147.935C96.5902 148.024 96.4078 148.126 96.2325 148.239C96.2325 148.239 96.138 148.145 96.1695 148.103C96.4345 147.754 96.7757 147.47 97.167 147.273Z" fill="#263238"/>
<path d="M82.95 148.638C82.74 149.604 83.4225 149.825 84.3465 150.014C85.2705 150.203 86.0895 150.308 86.2995 149.342C86.3497 149.12 86.3553 148.891 86.316 148.667C86.2767 148.444 86.1933 148.23 86.0707 148.039C85.9481 147.848 85.7887 147.683 85.6018 147.555C85.4149 147.426 85.2042 147.335 84.9821 147.289C84.7599 147.242 84.5307 147.24 84.3077 147.283C84.0848 147.326 83.8726 147.412 83.6835 147.538C83.4944 147.663 83.3321 147.825 83.2062 148.014C83.0803 148.203 82.9932 148.415 82.95 148.638Z" fill="#263238"/>
<path d="M85.89 147.483C85.4636 147.316 85.0137 147.217 84.5565 147.189C84.1135 147.136 83.6645 147.168 83.2335 147.284C82.7758 147.398 82.3397 147.586 81.942 147.84C81.942 147.84 81.942 147.966 81.942 147.956C82.3318 147.841 82.728 147.75 83.1286 147.683C83.6236 147.619 84.1245 147.619 84.6195 147.683C85.2211 147.738 85.8117 147.879 86.373 148.103L86.9505 148.323C87.003 148.323 87.024 148.218 86.9505 148.187C86.6518 147.878 86.29 147.639 85.89 147.483Z" fill="#263238"/>
<path d="M91.182 171.003C85.722 170.804 78.393 168.903 76.482 165.438C77.532 169.166 81.4275 171.098 84.4935 171.948C86.6805 172.56 88.9259 172.94 91.1925 173.082L91.182 171.003Z" fill="#F28F8F"/>
<path d="M72.345 173.313C72.345 173.313 76.6395 184.296 76.4295 202.009C76.2195 219.723 74.151 273.052 73.0275 299.859C54.726 298.809 46.137 291.343 46.137 291.343C46.137 291.343 47.712 272.275 48.951 255.864C50.2425 238.969 53.487 230.475 52.6785 219.313C50.4 187.467 58.5375 178.888 58.5375 178.888L72.345 173.313Z" fill="#E0E0E0"/>
<path d="M91.14 173.082L91.2135 174.993C91.2135 174.993 103.814 183.897 106.386 196.77C108.959 209.643 111.415 298.788 111.415 298.788C111.415 298.788 116.665 297.549 119.815 294.977C117.516 262.017 112.864 209.853 112.864 209.853C114.792 206.831 115.775 203.304 115.689 199.721C115.5 193.83 110.208 184.632 99.0885 176.18L91.14 173.082Z" fill="#E0E0E0"/>
<path d="M108.696 226.128C110.607 215.229 111.846 202.398 111.846 202.398L109.746 199.122H112.35C112.35 199.122 108.234 187.625 103.11 180.915C99.9871 176.861 95.9065 173.647 91.2345 171.56V175.35C91.2345 175.35 101.608 183.624 104.601 192.864C107.593 202.104 108.696 226.128 108.696 226.128Z" fill="#F5F5F5"/>
<path d="M72.3345 170.982C71.0324 172.323 69.5521 173.478 67.935 174.416C65.3625 175.875 63.357 176.936 63.357 176.936L69.7305 201.747L72.3345 201.002L70.3185 206.073L75.873 223.976C75.873 223.976 77.2274 204.824 76.7339 193.526C76.4069 186.594 74.9235 179.766 72.345 173.324L72.3345 170.982Z" fill="#F5F5F5"/>
<path d="M91.5705 204.456C94.941 201.988 96.642 201.033 98.217 200.602C99.792 200.172 105.305 197.914 107.415 197.389C108.759 197.064 109.305 199.153 107.594 200.602C106.281 201.652 102.858 203.164 101.357 203.973C99.855 204.781 96.915 208.288 96.915 208.288L91.5705 204.456Z" fill="#F28F8F"/>
<path d="M44.163 189.462C47.5125 182.459 51.1035 180.842 58.4535 179.76C61.677 187.026 59.892 203.354 59.892 203.354L56.217 220.49C56.217 220.49 75.978 217.676 78.267 216.29C80.556 214.904 86.667 208.394 88.767 206.451C91.5705 203.826 92.967 204.173 94.374 204.351C99.0255 205.034 100.044 205.401 101.031 206.042C101.321 206.235 101.556 206.5 101.714 206.811C101.872 207.122 101.948 207.468 101.934 207.816C103.173 207.963 105.021 207.932 105.252 209.916C105.355 210.441 105.38 210.979 105.326 211.512C105.638 211.567 105.923 211.726 106.134 211.964C107.184 213.14 105.399 217.214 104.276 218.169C103.488 218.862 102.375 218.946 100.895 218.757C99.645 218.589 100.233 217.34 100.233 217.34L98.4795 217.434C94.6995 220.08 94.5 225.299 89.502 226.454C87.4339 226.656 85.3884 227.046 83.391 227.619C72.6285 231.168 54.978 241.931 45.381 242.739C36.015 243.537 36.288 238.634 36.141 233.006C35.9625 227.966 40.8345 196.434 44.163 189.462Z" fill="#FFA8A7"/>
<path d="M56.616 218.557L56.217 220.49C51.954 221.54 46.9455 227.094 45.9165 229.383C46.7145 225.75 49.1085 220.5 56.616 218.557Z" fill="#F28F8F"/>
<path d="M58.5375 178.888C56.7511 179.256 54.9959 179.762 53.2875 180.4C50.5134 181.266 48.1196 183.056 46.5045 185.472C44.4885 188.338 43.491 190.386 40.971 199.626C38.934 207.112 35.238 224.826 34.8705 231.367C34.503 237.909 36.141 240.46 37.8105 241.804C39.48 243.148 43.3965 244.209 49.161 242.424C54.9255 240.639 72.03 233.289 72.03 233.289C72.03 233.289 69.0165 232.68 68.313 226.285C67.6095 219.891 69.8985 218.106 69.8985 218.106L56.595 220.143L59.85 205.653C59.85 205.653 62.9055 186.9 58.5375 178.888Z" fill="#EBEBEB"/>
<path d="M56.6161 220.143C54.319 220.595 52.1649 221.594 50.3369 223.056C48.5088 224.519 47.0609 226.401 46.1161 228.543C46.576 225.813 47.8919 223.3 49.8738 221.368C51.8556 219.435 54.4006 218.182 57.1411 217.791L56.6161 220.143Z" fill="#E0E0E0"/>
<path d="M101.85 207.806L96.327 206.756L101.735 207.092C101.814 207.321 101.853 207.563 101.85 207.806Z" fill="#F28F8F"/>
<path d="M105.273 211.502L98.9205 210.693L105.284 210.777C105.311 211.018 105.308 211.262 105.273 211.502Z" fill="#F28F8F"/>
<path d="M104.444 214.253C104.232 214.574 103.934 214.829 103.583 214.987C103.249 215.151 102.896 215.271 102.533 215.344L102.617 215.292L102.081 216.258L101.945 216.09C102.127 216.053 102.315 216.055 102.496 216.097C102.677 216.139 102.847 216.219 102.995 216.331C103.259 216.542 103.453 216.828 103.551 217.15C103.397 216.873 103.177 216.639 102.911 216.468C102.646 216.319 102.339 216.264 102.039 216.31L101.798 216.363L101.913 216.143C102.081 215.817 102.26 215.491 102.449 215.176V215.124H102.512C102.871 215.067 103.222 214.972 103.562 214.84C103.896 214.713 104.197 214.512 104.444 214.253Z" fill="#F28F8F"/>
<path d="M102.753 215.061C101.99 215.156 101.222 215.209 100.454 215.219C100.311 215.687 100.034 216.104 99.6555 216.416C99.2694 216.792 98.859 217.143 98.427 217.466L100.181 217.371C100.423 217.068 100.725 216.818 101.068 216.638C101.412 216.457 101.789 216.349 102.176 216.321L102.753 215.061Z" fill="#F28F8F"/>
<path d="M132.573 206.65C130.716 207.829 129.11 209.364 127.849 211.166C126.587 212.968 125.695 215.002 125.223 217.15C124.698 210.798 131.523 205.201 131.523 205.201L132.573 206.65Z" fill="#E0E0E0"/>
<path d="M181.177 416.724L177.565 415.013L181.136 414.057L181.177 416.724Z" fill="#263238"/>
<path d="M145.341 423.15C145.341 423.15 187.95 404.586 188.506 407.4C188.633 407.949 188.633 408.52 188.506 409.07L188.622 408.912L187.835 414.089C185.921 415.592 183.62 416.52 181.199 416.766C181.199 416.525 181.199 414.981 181.199 414.11C179.885 414.624 178.626 415.268 177.439 416.031C174.699 417.785 172.945 420.83 170.089 424.379C167.989 426.962 164.199 428.169 158.624 428.946C152.607 429.776 147.315 428.673 145.824 427.119C144.533 425.828 145.121 423.549 145.341 423.15Z" fill="#263238"/>
<path d="M146.517 422.226C146.927 421.817 148.449 420.2 150.507 418.436C152.471 416.646 154.525 414.956 156.66 413.375C157.742 412.646 158.764 411.831 159.715 410.939C160.457 410.174 161.158 409.371 161.815 408.534C163.836 405.933 165.562 403.116 166.961 400.134C167.633 398.727 168.84 395.64 168.493 389.907C167.968 381.234 167.244 378.105 167.202 372.456L187.54 375.102C186.952 378.252 186.312 385.214 186.007 388.752C185.524 394.16 184.705 394.674 186.889 400.061C187.54 401.646 188.496 403.211 188.58 404.88C188.716 407.642 186.48 410.036 183.939 411.39C181.839 412.514 179.445 412.997 177.418 414.194C175.366 415.542 173.571 417.245 172.116 419.223C170.678 420.998 169.523 423.087 167.517 424.337C165.372 425.552 163.011 426.34 160.566 426.657C157.485 427.191 154.351 427.35 151.231 427.13C146.832 426.794 143.535 425.25 146.517 422.226Z" fill="#FFBDA7"/>
<path d="M148.964 419.202C150.801 417.711 153.405 415.58 156.545 413.175C157.627 412.81 158.773 412.671 159.911 412.769C161.049 412.866 162.155 413.198 163.16 413.742C169.46 416.892 170.573 421.491 170.573 421.491C169.489 423.567 167.634 425.135 165.407 425.859C158.057 428.946 144.995 427.959 144.858 424.736C144.774 422.667 146.727 421.05 148.964 419.202ZM186.512 398.885C186.972 399.96 187.487 401.012 188.055 402.035C188.666 402.974 188.986 404.073 188.975 405.194C188.964 406.315 188.622 407.407 187.992 408.335C187.262 409.432 186.317 410.369 185.214 411.091C184.112 411.813 182.874 412.304 181.577 412.535C179.55 406.35 183.971 400.218 186.512 398.885Z" fill="#37474F"/>
<path d="M223.062 406.434C223.062 408.618 223.702 415.076 223.545 419.958C223.408 424.379 222.568 431.309 223.965 436.454C225.361 441.599 230.622 447.227 237.457 442.208C241.657 439.058 243.327 435.435 243.757 429.051C244.03 424.62 241.825 418.551 239.935 413.165C237.72 406.865 236.848 403.494 236.848 403.494L223.062 406.434Z" fill="#263238"/>
<path d="M236.429 373.464C236.775 379.428 236.712 389.33 236.827 395.934C236.907 399.504 237.322 403.058 238.067 406.55C239.19 410.75 240.492 416.567 241.28 419.286C242.33 423.077 243.201 425.46 241.815 429.786C241.7 430.129 241.545 430.456 241.353 430.763C239.347 434.343 234.056 437.136 232.323 436.748C231.951 437.159 231.479 437.467 230.953 437.642C230.427 437.816 229.864 437.852 229.32 437.745C229.128 437.722 228.939 437.683 228.753 437.63C228.553 437.585 228.356 437.525 228.165 437.451C227.483 437.158 226.868 436.727 226.36 436.185C225.853 435.642 225.463 435.001 225.214 434.301C225.097 433.998 224.996 433.69 224.91 433.377C224.013 429.993 223.677 426.485 223.913 422.993C223.913 420.462 223.755 416.85 223.398 412.986C223.041 409.122 218.054 389.078 215.849 376.992L236.429 373.464Z" fill="#FFBDA7"/>
<path d="M242.476 424.2C238.192 422.667 225.519 422.961 223.713 428.221C223.807 433.135 224.259 436.233 227.913 440.423C232.795 445.988 238.78 439.824 241.027 435.939C243.274 432.054 243.127 426.856 242.476 424.2Z" fill="#37474F"/>
<path d="M222.358 233.415C224.878 240.335 231.315 251.559 231.472 269.451C231.63 287.343 235.273 322.214 235.273 322.214C235.273 322.214 237.373 341.061 238.56 349.734C240.282 362.25 246.267 411.6 246.267 411.6C246.267 411.6 239.526 417.47 232.333 418.299C219.534 419.79 216.583 415.328 216.583 415.328C216.583 415.328 204.876 357.021 203.217 348.128C200.256 332.168 196.801 310.023 195.573 301.182L192.906 326.256C192.906 326.256 193.956 336.851 193.819 347.256C193.746 352.748 191.719 403.389 191.719 403.389C191.719 403.389 189.367 408.545 176.578 409.385C163.789 410.225 161.878 403.988 161.878 403.988C161.878 403.988 159.106 346.647 159.862 318.833C160.996 277.326 159.736 263.288 165.112 233.457L222.358 233.415Z" fill="#263238"/>
<path d="M195.583 301.172L188.832 266.7C188.832 266.7 178.059 266.396 170.656 258.195C170.656 258.195 172.305 268.695 185.871 271.688L192.171 300.657L192.927 326.246L195.583 301.172Z" fill="black"/>
<path d="M183.75 179.991C178.007 181.398 170.016 182.805 166.131 191.3C160.598 203.448 151.431 219.734 151.977 234.287L163.706 231.788L174.415 214.61L183.75 179.991Z" fill="#FFBDA7"/>
<path d="M161.28 216.794C163.256 214.78 164.98 212.534 166.414 210.105C163.758 203.627 166.078 192.035 176.232 186.165L178.332 200.277L174.468 214.61L163.758 231.788C163.758 231.788 152.439 239.915 152.029 234.287C152.029 234.014 152.029 233.751 152.029 233.468C152.145 232.239 152.302 231.011 152.481 229.782C153.678 223.514 158.791 219.198 161.28 216.794Z" fill="#F0997A"/>
<path d="M223.545 183.487C219.419 182.076 215.178 181.022 210.871 180.337C205.621 179.487 197.41 178.72 192.958 179.035C189.885 179.18 186.824 179.513 183.792 180.033C183.792 180.033 174.51 185.503 169.953 194.082C165.889 201.736 164.902 212.268 164.094 233.625C164.072 234.205 164.18 234.782 164.411 235.315C164.641 235.847 164.989 236.321 165.427 236.701C176.757 246.687 208.11 246.928 223.303 236.596C223.933 236.172 224.424 235.574 224.719 234.875C225.014 234.175 225.098 233.405 224.962 232.659C223.23 223.419 223.135 222.442 224.017 211.722C224.857 201.6 228.186 188.748 223.545 183.487Z" fill="#455A64"/>
<path d="M180.285 170.95C180.088 169.215 180.223 167.458 180.684 165.774C181.087 164.593 181.358 163.371 181.493 162.13C181.598 159.579 179.456 158.665 178.343 156.66C177.824 155.686 177.523 154.611 177.461 153.51C177.461 153.069 177.461 150.538 177.996 150.36C176.579 150.78 174.962 151.137 173.712 150.36C173.209 150.027 172.829 149.54 172.628 148.972C172.427 148.403 172.417 147.785 172.599 147.21C172.682 147.427 172.808 147.624 172.969 147.791C173.131 147.957 173.325 148.088 173.539 148.177C173.754 148.265 173.984 148.309 174.216 148.305C174.448 148.301 174.677 148.25 174.888 148.155C175.202 147.96 175.462 147.69 175.645 147.369C175.829 147.048 175.929 146.687 175.938 146.318C175.957 145.576 175.865 144.837 175.665 144.123C175.343 142.897 175.191 141.632 175.214 140.364C175.414 138.529 176.198 136.806 177.45 135.45C178.776 133.962 180.35 132.715 182.102 131.764C187.184 128.793 193.116 126.672 199.049 126.798C211.092 127.071 216.71 130.609 217.476 136.92C217.476 136.573 219.87 137.896 220.08 138.043C220.928 138.611 221.671 139.321 222.275 140.143C223.496 141.822 224.043 143.898 223.808 145.96C223.603 146.917 223.456 147.885 223.367 148.858C223.367 152.008 226.097 154.392 227.157 157.343C227.522 158.311 227.655 159.351 227.544 160.38C227.432 161.409 227.08 162.397 226.517 163.264C225.152 165.186 222.821 166.184 221.949 168.514C221.466 169.796 221.55 171.223 221.13 172.525C220.829 173.449 220.292 174.278 219.571 174.93C218.851 175.582 217.973 176.034 217.025 176.243C214.568 176.757 211.775 175.959 209.444 176.935C207.953 177.565 206.913 179.035 205.433 179.676C204.593 180.011 203.701 180.193 202.797 180.212C201.093 180.397 199.368 180.189 197.757 179.603C196.382 179.035 195.206 178.049 193.799 177.587C192.025 177.197 190.195 177.144 188.402 177.429C184.233 177.744 180.842 175.255 180.285 170.95Z" fill="#37474F"/>
<path d="M213.476 168C214.548 168.178 215.647 168.097 216.681 167.763C217.715 167.428 218.654 166.851 219.419 166.079C222.453 162.981 222.852 159.779 221.519 157.511C220.469 155.684 217.76 154.434 215.786 155.579C213.812 156.723 213.57 157.836 212.741 159.275C211.911 160.713 208.898 160.461 208.404 154.55C207.932 149.027 207.291 143.966 204.698 141.383C200.823 137.529 195.248 137.918 193.526 140.049C193.236 139.448 192.824 138.914 192.315 138.482C191.807 138.049 191.214 137.728 190.575 137.538C189.935 137.348 189.263 137.294 188.601 137.38C187.939 137.465 187.303 137.687 186.732 138.033C183.992 139.367 181.104 141.309 180.17 153.069C179.33 163.706 180.17 169.491 182.207 171.728C184.779 174.563 188.57 174.773 192.549 175.098L192.675 180.527C192.675 180.527 182.469 188.927 191.342 190.092C194.99 190.58 198.702 190.112 202.115 188.733C205.527 187.354 208.523 185.113 210.809 182.228L210.998 165.9C211.187 166.439 211.516 166.917 211.952 167.286C212.387 167.655 212.913 167.902 213.476 168Z" fill="#FFBDA7"/>
<path d="M202.125 142.097C203.024 143.919 203.563 145.897 203.711 147.924C203.763 149.709 203.616 153.878 204.614 156.45C204.969 157.485 205.582 158.413 206.393 159.148C207.205 159.882 208.189 160.399 209.255 160.65C210.641 160.971 212.086 160.935 213.455 160.545C214.305 160.23 216.731 158.792 216.605 156.345C215.699 157.183 214.51 157.648 213.276 157.647C212.491 157.585 211.735 157.325 211.078 156.892C210.42 156.459 209.883 155.866 209.517 155.169C208.142 152.754 208.467 149.667 208.215 146.99C207.869 143.598 207.585 139.755 204.687 137.865C201.264 135.629 194.618 136.332 193.568 139.965C194.26 139.509 195.039 139.202 195.856 139.063C196.672 138.923 197.509 138.955 198.314 139.155C199.118 139.355 199.871 139.72 200.528 140.226C201.184 140.733 201.727 141.369 202.125 142.097Z" fill="#E0E0E0"/>
<path d="M194.754 152.25C194.692 152.576 194.728 152.913 194.857 153.219C194.986 153.525 195.203 153.785 195.48 153.968C195.757 154.15 196.082 154.247 196.414 154.245C196.746 154.243 197.07 154.143 197.345 153.957C197.62 153.771 197.834 153.508 197.959 153.201C198.085 152.894 198.117 152.556 198.051 152.231C197.985 151.906 197.824 151.607 197.589 151.373C197.353 151.139 197.054 150.98 196.728 150.917C196.511 150.874 196.287 150.875 196.07 150.919C195.853 150.963 195.647 151.049 195.464 151.173C195.28 151.297 195.123 151.456 195.001 151.641C194.88 151.825 194.796 152.033 194.754 152.25Z" fill="#263238"/>
<path d="M182.826 151.82C182.764 152.146 182.8 152.483 182.929 152.788C183.058 153.094 183.275 153.355 183.552 153.537C183.829 153.72 184.154 153.816 184.486 153.815C184.818 153.813 185.142 153.712 185.417 153.527C185.692 153.341 185.906 153.078 186.031 152.771C186.157 152.463 186.189 152.126 186.123 151.801C186.057 151.475 185.896 151.177 185.661 150.943C185.425 150.709 185.126 150.55 184.8 150.486C184.583 150.443 184.359 150.444 184.142 150.488C183.925 150.532 183.719 150.618 183.536 150.742C183.352 150.866 183.195 151.025 183.073 151.21C182.952 151.395 182.868 151.602 182.826 151.82Z" fill="#263238"/>
<path d="M181.755 149.226L185.955 147.619C185.862 147.343 185.715 147.088 185.521 146.869C185.327 146.651 185.091 146.475 184.827 146.35C184.563 146.225 184.277 146.156 183.985 146.145C183.694 146.134 183.403 146.182 183.131 146.286C182.569 146.508 182.114 146.936 181.858 147.482C181.602 148.029 181.565 148.653 181.755 149.226Z" fill="#263238"/>
<path d="M195.909 148.134L200.057 149.835C200.181 149.571 200.25 149.284 200.26 148.992C200.27 148.7 200.22 148.409 200.114 148.137C200.008 147.865 199.848 147.618 199.643 147.409C199.438 147.201 199.193 147.037 198.923 146.927C198.361 146.705 197.736 146.706 197.176 146.931C196.615 147.155 196.162 147.586 195.909 148.134Z" fill="#263238"/>
<path d="M192.077 149.835L189.536 161.07L184.044 157.658L192.077 149.835Z" fill="#F0997A"/>
<path d="M192.602 175.056C202.367 174.71 205.139 172.106 207.522 167.895C207.522 167.895 206.651 173.418 202.451 175.245C199.324 176.467 196.01 177.141 192.654 177.24L192.602 175.056Z" fill="#F0997A"/>
<path d="M189.809 164.147C190.65 164.26 191.503 164.243 192.339 164.094C192.753 164.021 193.16 163.916 193.557 163.779L194.156 163.559C194.393 163.433 194.654 163.358 194.922 163.338C195.059 163.338 194.996 163.59 194.922 163.643C194.628 163.93 194.267 164.14 193.872 164.252C193.423 164.42 192.959 164.547 192.486 164.63C191.544 164.787 190.582 164.787 189.641 164.63C189.389 164.619 189.567 164.115 189.809 164.147Z" fill="#B16668"/>
<path d="M179.792 217.539C181.218 215.346 183.347 213.702 185.829 212.877C188.616 211.776 191.331 210.5 193.956 209.055C195.064 208.549 196.104 207.907 197.054 207.144C197.536 206.725 197.899 206.185 198.104 205.58C198.252 205.022 198.184 204.43 197.915 203.921C198.547 203.625 199.085 203.16 199.469 202.577C199.789 202.009 199.882 201.341 199.731 200.708C199.67 200.508 199.57 200.323 199.436 200.162C199.303 200.002 199.139 199.87 198.954 199.773C199.311 199.164 200.393 197.442 199.248 196.151C198.849 195.857 198.198 195.983 197.757 196.014C197.316 196.046 196.13 196.235 195.878 196.277C195.759 196.118 195.609 195.985 195.437 195.888C194.33 195.333 193.075 195.149 191.856 195.363C190.52 195.633 189.215 196.037 187.961 196.571C186.596 197.054 185.168 197.411 183.761 197.799C183.47 197.89 183.171 197.95 182.868 197.978C182.175 197.978 181.503 197.705 180.768 197.789C180.176 197.88 179.6 198.053 179.057 198.303C177.859 198.852 176.864 199.763 176.211 200.907C174.395 204.057 173.24 207.407 171.087 210.357C169.217 212.831 167.134 215.136 164.861 217.245C161.312 220.679 154.539 223.787 152.597 230.538C151.295 235.032 151.379 241.343 154.465 244.01C156.503 245.763 164.105 244.346 168.294 239.81C173.25 234.476 177.975 220.584 179.792 217.539Z" fill="#FFBDA7"/>
<path d="M195.731 196.276C191.468 197.107 187.317 198.432 183.362 200.224C187.105 197.928 191.349 196.573 195.731 196.276ZM191.426 200.655C193.792 199.876 196.298 199.611 198.776 199.878C193.83 199.878 189.021 201.695 184.475 203.49C186.659 202.248 188.995 201.295 191.426 200.655ZM197.001 203.175C197.328 203.234 197.622 203.41 197.827 203.672C198.033 203.933 198.135 204.261 198.114 204.593C197.999 203.018 196.203 203.301 195.122 203.543C191.425 204.356 187.825 205.556 184.38 207.123C187.672 205.179 191.297 203.862 195.069 203.238C195.706 203.118 196.358 203.096 197.001 203.175Z" fill="#F0997A"/>
<path d="M223.545 183.487C229.551 185.293 237.195 189.882 235.284 201.862C233.52 213.139 226.149 238.056 223.639 244.272C220.794 251.328 217.875 253.806 214.095 254.635C210.84 255.349 207.207 253.239 204.477 251.307C196.707 245.794 191.646 234.748 186.144 223.177C183.573 217.721 181.683 211.97 180.516 206.052C180.297 204.663 180.234 203.255 180.327 201.852C180.443 200.546 180.777 199.268 181.314 198.072C181.398 197.893 181.493 197.725 181.556 197.547C181.617 197.236 181.642 196.919 181.629 196.602C181.619 195.832 181.892 195.085 182.395 194.502C182.64 194.272 182.9 194.058 183.173 193.861C183.271 193.802 183.356 193.723 183.425 193.63C183.624 193.347 183.519 192.958 183.55 192.58C183.626 192.205 183.834 191.87 184.137 191.637C184.44 191.403 184.817 191.287 185.199 191.31C185.622 191.365 186.027 191.516 186.383 191.753C186.738 191.99 187.033 192.305 187.246 192.675C187.285 192.731 187.335 192.777 187.394 192.811C187.462 192.833 187.535 192.833 187.604 192.811C187.955 192.757 188.313 192.782 188.654 192.885C188.975 192.979 189.267 193.152 189.504 193.389C189.988 193.992 190.29 194.72 190.375 195.489C190.638 196.707 190.827 197.946 191.089 199.164C191.625 201.568 191.835 204.078 193.126 206.209C193.242 206.409 193.431 206.629 193.651 206.577C193.872 206.524 193.945 206.283 193.977 206.073C194.313 203.878 193.032 201.589 194.733 199.678C196.213 198.019 196.445 201.285 196.686 202.125C197.001 203.269 197.316 204.414 197.642 205.558C198.261 207.421 198.614 209.362 198.692 211.323C198.692 213.181 198.156 215.008 198.23 216.856C198.245 218.697 198.962 220.462 200.235 221.791C205.286 226.905 207.585 228.931 207.585 228.931L211.533 210.031C211.533 210.031 212.121 199.206 216.447 190.648C219.219 185.073 223.545 183.487 223.545 183.487Z" fill="#FFBDA7"/>
<path d="M187.131 193.095C186.756 194.082 186.64 195.148 186.795 196.193C186.955 199.328 187.487 202.433 188.38 205.443C188.097 203.669 187.74 201.075 187.467 199.259C187.257 197.726 187.099 196.109 186.984 194.618C186.911 194.106 186.961 193.583 187.131 193.095Z" fill="#F0997A"/>
<path d="M183.571 193.778C183.398 198.039 183.945 202.298 185.188 206.378C184.306 202.304 184.138 197.978 183.571 193.778Z" fill="#F0997A"/>
<path d="M181.556 197.725C181.305 200.914 181.661 204.12 182.606 207.175C182.291 204.403 181.829 200.518 181.556 197.725Z" fill="#F0997A"/>
<path d="M204.477 251.307C195.762 244.65 191.593 234.014 186.858 224.459C184.491 219.599 182.633 214.507 181.314 209.265C180.55 206.679 180.286 203.97 180.537 201.285C180.763 199.954 181.161 198.659 181.723 197.432C181.723 196.035 181.933 194.754 183.246 194.009C183.404 193.901 183.53 193.752 183.609 193.578C183.689 193.404 183.719 193.212 183.697 193.022C183.678 192.79 183.716 192.557 183.808 192.343C183.9 192.13 184.043 191.942 184.225 191.797C184.406 191.652 184.621 191.553 184.849 191.511C185.078 191.468 185.313 191.482 185.535 191.552C186.241 191.789 186.84 192.269 187.225 192.906C187.269 192.949 187.323 192.981 187.381 192.999C187.439 193.017 187.501 193.021 187.561 193.011C188.049 192.91 188.556 192.977 189 193.2C190.197 193.893 190.207 195.5 190.501 196.718C190.948 199.39 191.537 202.036 192.265 204.645C192.498 205.294 192.812 205.912 193.2 206.483C194.103 207.26 194.176 205.685 194.145 205.107C194.071 203.165 193.399 200.907 195.111 199.469C196.318 198.65 196.381 201.726 196.675 202.398L197.221 204.351C197.935 206.934 198.828 209.601 198.555 212.279C198.282 214.956 197.641 217.802 199.038 220.259C199.774 221.401 200.672 222.431 201.705 223.314C203.626 225.215 205.558 227.115 207.564 228.921C205.569 227.094 203.658 225.183 201.747 223.272C200.732 222.382 199.851 221.349 199.132 220.206C198.523 219.005 198.23 217.667 198.282 216.321C198.282 214.977 198.586 213.644 198.712 212.289C198.996 209.559 198.103 206.903 197.4 204.309L196.854 202.356C196.719 201.336 196.432 200.341 196.003 199.406C195.142 198.356 194.082 200.298 193.903 201.044C193.546 202.409 193.903 203.784 193.956 205.107C193.956 207.837 192.906 205.79 192.496 204.561C191.782 201.961 191.204 199.325 190.764 196.665C190.48 195.08 190.197 192.738 188.128 192.686C187.929 192.686 187.593 192.77 187.477 192.686C187.06 192.008 186.417 191.498 185.661 191.247C185.398 191.171 185.121 191.159 184.852 191.212C184.584 191.266 184.332 191.383 184.118 191.553C183.904 191.724 183.734 191.944 183.623 192.194C183.511 192.444 183.461 192.717 183.477 192.99C183.5 193.137 183.481 193.287 183.421 193.422C183.361 193.558 183.264 193.674 183.141 193.757C182.53 194.112 182.057 194.663 181.797 195.321C181.598 195.978 181.506 196.662 181.524 197.348C180.957 198.58 180.558 199.883 180.337 201.222C180.09 203.937 180.364 206.674 181.146 209.286C182.483 214.541 184.362 219.644 186.753 224.511C191.488 234.056 195.751 244.703 204.54 251.276L204.477 251.307Z" fill="#F0997A"/>
<path d="M207.522 228.953C211.25 230.706 214.399 234.202 215.008 236.197C215.008 236.197 215.344 230.191 208.036 226.747L207.522 228.953Z" fill="#F0997A"/>
<path d="M55.4715 70.4026C55.4586 78.2372 58.4281 85.783 63.777 91.5076L66.3285 93.9436C72.2195 98.9953 79.7981 101.641 87.5532 101.353C95.3083 101.066 102.67 97.866 108.171 92.3918C113.671 86.9177 116.907 79.5714 117.232 71.8178C117.557 64.0642 114.948 56.4729 109.924 50.5576L107.488 47.9956C103.108 43.8634 97.6139 41.1038 91.6837 40.0568C85.7535 39.0099 79.6466 39.7215 74.116 42.1039C68.5854 44.4862 63.8731 48.4352 60.56 53.4638C57.2469 58.4924 55.478 64.3807 55.4715 70.4026Z" fill="white"/>
<path d="M86.436 36.9705C94.8389 36.9836 102.93 40.1546 109.104 45.8545C115.278 51.5544 119.084 59.3668 119.768 67.7418C120.451 76.1169 117.961 84.4429 112.793 91.0682C107.624 97.6935 100.154 102.134 91.8645 103.509L88.074 113.201C87.9324 113.566 87.6836 113.88 87.3604 114.101C87.0372 114.323 86.6545 114.441 86.2627 114.441C85.8709 114.441 85.4883 114.323 85.165 114.101C84.8418 113.88 84.593 113.566 84.4515 113.201L80.7135 103.478C72.4387 102.057 64.9992 97.5805 59.8683 90.9348C54.7374 84.2892 52.2895 75.959 53.0092 67.594C53.729 59.2291 57.5639 51.4395 63.7546 45.768C69.9453 40.0965 78.0401 36.9567 86.436 36.9705ZM55.482 70.4025C55.4599 78.2369 58.4264 85.7848 63.777 91.5075L66.3285 93.9435C72.2195 98.9952 79.7981 101.641 87.5532 101.353C95.3083 101.066 102.67 97.866 108.171 92.3918C113.671 86.9176 116.907 79.5713 117.232 71.8177C117.557 64.0641 114.948 56.4729 109.924 50.5575L107.488 47.985C103.107 43.8558 97.6128 41.0989 91.6834 40.0543C85.754 39.0097 79.6485 39.7229 74.1196 42.1062C68.5907 44.4895 63.88 48.4385 60.5682 53.4665C57.2565 58.4946 55.4884 64.3818 55.482 70.4025Z" fill="#455A64"/>
<path d="M68.3655 62.4225C68.366 59.0165 69.3331 55.6805 71.1542 52.8023C72.9754 49.9241 75.5759 47.6218 78.6537 46.1628C81.7314 44.7039 85.1599 44.1483 88.5409 44.5606C91.9218 44.9728 95.1164 46.336 97.7533 48.4918C100.39 50.6475 102.361 53.5073 103.438 56.7389C104.514 59.9704 104.651 63.4409 103.833 66.7473C103.015 70.0536 101.275 73.0599 98.8167 75.4169C96.358 77.7739 93.2809 79.3848 89.943 80.0625V84.1365H95.193C95.4353 84.1365 95.6676 84.2327 95.8389 84.404C96.0103 84.5753 96.1065 84.8077 96.1065 85.05V90.3945C96.1065 90.5144 96.0829 90.6332 96.037 90.744C95.9911 90.8549 95.9238 90.9556 95.8389 91.0404C95.7541 91.1252 95.6534 91.1925 95.5426 91.2384C95.4317 91.2843 95.313 91.308 95.193 91.308H89.943V95.613C89.943 95.8534 89.8482 96.0842 89.6792 96.2552C89.5101 96.4262 89.2804 96.5237 89.04 96.5265H83.685C83.5655 96.5265 83.4472 96.5028 83.337 96.4567C83.2267 96.4107 83.1267 96.3432 83.0427 96.2583C82.9587 96.1733 82.8924 96.0725 82.8477 95.9618C82.8029 95.851 82.7806 95.7324 82.782 95.613V91.35H77.532C77.2915 91.3472 77.0619 91.2497 76.8928 91.0787C76.7238 90.9077 76.629 90.6769 76.629 90.4365V85.05C76.629 84.8095 76.7238 84.5787 76.8928 84.4077C77.0619 84.2367 77.2915 84.1392 77.532 84.1365H82.782V80.0625C78.7157 79.2309 75.0608 77.0219 72.4344 73.8081C69.808 70.5944 68.3708 66.5729 68.3655 62.4225ZM97.2615 62.4225C97.2615 60.2668 96.6223 58.1596 95.4247 56.3673C94.2271 54.575 92.5249 53.178 90.5334 52.3531C88.5418 51.5282 86.3504 51.3123 84.2362 51.7329C82.122 52.1534 80.18 53.1915 78.6557 54.7157C77.1315 56.24 76.0935 58.182 75.6729 60.2962C75.2524 62.4104 75.4682 64.6018 76.2931 66.5933C77.1181 68.5849 78.515 70.2871 80.3073 71.4847C82.0997 72.6823 84.2069 73.3215 86.3625 73.3215C89.2522 73.3187 92.0228 72.1695 94.0662 70.1262C96.1096 68.0828 97.2587 65.3122 97.2615 62.4225Z" fill="#ED5AA0"/>
<path d="M88.3155 56.595H91.182C91.2461 56.595 91.3075 56.6204 91.3528 56.6657C91.3981 56.711 91.4235 56.7724 91.4235 56.8365V67.998C91.4235 68.062 91.3981 68.1234 91.3528 68.1687C91.3075 68.214 91.2461 68.2395 91.182 68.2395H88.3155C88.2514 68.2395 88.19 68.214 88.1447 68.1687C88.0995 68.1234 88.074 68.062 88.074 67.998V56.8365C88.0766 56.7732 88.1029 56.7133 88.1476 56.6686C88.1924 56.6238 88.2523 56.5976 88.3155 56.595ZM81.5325 56.595H84.399C84.4631 56.595 84.5245 56.6204 84.5698 56.6657C84.6151 56.711 84.6405 56.7724 84.6405 56.8365V67.998C84.6405 68.062 84.6151 68.1234 84.5698 68.1687C84.5245 68.214 84.4631 68.2395 84.399 68.2395H81.5325C81.4685 68.2395 81.407 68.214 81.3617 68.1687C81.3165 68.1234 81.291 68.062 81.291 67.998V56.8365C81.291 56.8048 81.2973 56.7734 81.3094 56.7441C81.3215 56.7148 81.3393 56.6881 81.3617 56.6657C81.3842 56.6433 81.4108 56.6255 81.4401 56.6134C81.4694 56.6012 81.5008 56.595 81.5325 56.595Z" fill="#455A64"/>
</svg>
