<svg width="142" height="88" viewBox="0 0 142 88" fill="none" xmlns="http://www.w3.org/2000/svg">
<g id="WEF-Logo" clip-path="url(#clip0_22_499)">
<g id="Group">
<path id="Vector" fill-rule="evenodd" clip-rule="evenodd" d="M48.8306 14.6704C48.5933 14.0009 48.4612 13.2775 48.4612 12.5208C48.4612 9.33169 50.5931 6.46277 54.4584 6.46277C55.2716 6.46277 56.0042 6.59583 56.6604 6.82659C57.3621 6.27983 58.0824 5.75594 58.817 5.25076C57.5334 4.50651 56.0413 4.07617 54.4584 4.07617C49.7428 4.07617 45.832 7.8806 45.832 12.5208C45.832 14.2026 46.3067 15.741 47.1239 17.0299C47.3159 16.743 47.5057 16.4562 47.708 16.1755C48.0712 15.6641 48.4468 15.1631 48.8306 14.6704Z" fill="white"/>
<path id="Vector_2" fill-rule="evenodd" clip-rule="evenodd" d="M60.2383 5.66895C59.5614 6.12007 58.899 6.59199 58.251 7.08053C59.6605 8.21563 60.4117 9.98479 60.4117 11.8724C60.4117 15.1904 57.9744 17.9304 54.4145 17.9304C52.3961 17.9304 50.741 17.049 49.6844 15.6831C49.4801 15.9534 49.2758 16.2236 49.0777 16.5001C48.7764 16.9242 48.4854 17.3525 48.2026 17.7828C49.7711 19.3607 51.9751 20.317 54.4145 20.317C59.1755 20.317 63.0409 16.6852 63.0409 11.8724C63.0409 9.42764 61.9554 7.21566 60.2383 5.66895Z" fill="white"/>
<path id="Vector_3" fill-rule="evenodd" clip-rule="evenodd" d="M44.853 34.2399C44.853 36.7928 43.4063 38.9985 41.1177 39.8821C41.1032 40.3477 41.0908 40.8113 41.0908 41.2791C41.0908 41.6533 41.097 42.0296 41.1073 42.4017C44.7767 41.4641 47.4822 38.2667 47.4822 34.2399C47.4822 31.2857 45.8973 28.6704 43.5281 27.1611C43.2516 27.9366 42.9998 28.7203 42.7707 29.5103C44.1307 30.6475 44.853 32.3875 44.853 34.2399Z" fill="white"/>
<path id="Vector_4" fill-rule="evenodd" clip-rule="evenodd" d="M39.1805 40.047L38.6522 40.0719C35.0922 40.0719 32.655 37.3319 32.655 34.0139C32.655 30.8249 34.7868 27.9559 38.6522 27.9559C39.5416 27.9559 40.3341 28.1139 41.0337 28.3863C41.2607 27.6358 41.5022 26.8874 41.7705 26.1494C40.8005 25.7772 39.748 25.5693 38.6522 25.5693C33.9365 25.5693 30.0278 29.3717 30.0278 34.0139C30.0278 38.8287 33.8932 42.4585 38.6522 42.4585L39.1846 42.4419C39.1702 41.9804 39.1599 41.5188 39.1599 41.0531C39.1599 40.7164 39.1722 40.3817 39.1805 40.047Z" fill="white"/>
<path id="Vector_5" fill-rule="evenodd" clip-rule="evenodd" d="M45.2117 50.244C49.0771 50.244 51.2089 53.1129 51.2089 56.302C51.2089 59.0961 49.4795 61.4723 46.8091 62.1563C47.2218 62.8735 47.6573 63.5782 48.1133 64.2726C51.4483 63.1396 53.8381 60.0877 53.8381 56.302C53.8381 51.6618 49.9294 47.8574 45.2117 47.8574C44.0354 47.8574 42.9086 48.0944 41.8809 48.5227C42.0191 49.3147 42.1801 50.1006 42.3638 50.8823C43.1707 50.481 44.12 50.244 45.2117 50.244Z" fill="white"/>
<path id="Vector_6" fill-rule="evenodd" clip-rule="evenodd" d="M38.9767 56.3605C38.9767 54.7223 39.5443 53.1715 40.6153 52.0468C40.4007 51.1903 40.2129 50.3233 40.0478 49.4502C37.8211 50.9824 36.3496 53.5124 36.3496 56.3605C36.3496 61.1732 40.215 64.8051 44.974 64.8051C45.3516 64.8051 45.7231 64.7802 46.0884 64.7365C45.6034 63.9715 45.1411 63.196 44.7057 62.406C41.2943 62.2709 38.9767 59.5933 38.9767 56.3605Z" fill="white"/>
<path id="Vector_7" fill-rule="evenodd" clip-rule="evenodd" d="M112.814 75.374C104.801 81.9496 94.6681 85.5628 84.207 85.5628C73.5086 85.5628 63.1569 81.7833 55.0588 74.9229L53.7339 76.4363C62.1993 83.6107 73.0216 87.5627 84.207 87.5627C95.151 87.5627 105.754 83.777 114.135 76.8937L112.814 75.374Z" fill="#184897"/>
<g id="Group_2">
<path id="Vector_8" fill-rule="evenodd" clip-rule="evenodd" d="M87.3252 47.8574V57.6325C87.3252 59.8944 86.5905 61.9899 83.7075 61.9899C80.8245 61.9899 80.0898 59.8944 80.0898 57.6325V47.8574H77.4399V58.1003C77.4399 61.6677 79.6894 64.3973 83.7054 64.3973C87.7235 64.3973 89.973 61.6677 89.973 58.1003V47.8574H87.3252Z" fill="white"/>
<path id="Vector_9" fill-rule="evenodd" clip-rule="evenodd" d="M88.7595 18.005H95.9908V20.2772H86.1323V4.07617H88.7595V18.005Z" fill="white"/>
<path id="Vector_10" fill-rule="evenodd" clip-rule="evenodd" d="M0 26.3652H9.41888V28.7082H2.62713V32.5355H9.22283V34.8784H2.62713V40.2233H9.41888V42.5684H0V26.3652Z" fill="white"/>
<path id="Vector_11" fill-rule="evenodd" clip-rule="evenodd" d="M52.9438 25.5693L64.0096 36.966V26.4134H66.6367V43.2589L55.573 31.9329V42.6165H52.9438V25.5693Z" fill="white"/>
<path id="Vector_12" fill-rule="evenodd" clip-rule="evenodd" d="M119.321 42.5684H121.95V26.3652H119.321V42.5684Z" fill="white"/>
<path id="Vector_13" fill-rule="evenodd" clip-rule="evenodd" d="M26.3353 50.2004V54.0485H32.0559V56.3914H26.3353V64.0585H23.7061V47.8574H32.252V50.2004H26.3353Z" fill="white"/>
<path id="Vector_14" fill-rule="evenodd" clip-rule="evenodd" d="M36.442 14.5539H36.4853L39.0547 4.41919H41.6756L37.1622 21.3084L31.5055 9.11132L25.8509 21.3084L21.3354 4.41919H23.9585L26.5278 14.5539H26.5711L31.5055 4.07617L36.442 14.5539Z" fill="white"/>
<path id="Vector_15" fill-rule="evenodd" clip-rule="evenodd" d="M98.4798 32.3238H98.4365L95.8671 42.4585H93.2441L97.7575 25.5693L103.414 37.7664L109.071 25.5693L113.584 42.4585H110.961L108.394 32.3238H108.349L103.414 42.8015L98.4798 32.3238Z" fill="white"/>
<path id="Vector_16" fill-rule="evenodd" clip-rule="evenodd" d="M99.2678 54.6118H99.2245L96.6551 64.7466H94.0342L98.5476 47.8574L104.202 60.0545L109.859 47.8574L114.372 64.7466H111.751L109.182 54.6118H109.139L104.202 65.0896L99.2678 54.6118Z" fill="white"/>
<path id="Vector_17" fill-rule="evenodd" clip-rule="evenodd" d="M63.6258 47.8574C65.089 47.8574 66.804 47.8782 68.1144 48.61C69.4909 49.4041 70.2772 50.9301 70.2772 52.4768C70.2772 54.7989 68.7047 56.7323 66.3231 57.0109L71.5217 64.0605H68.5272L63.6795 57.2043H61.8943V64.0605H59.2651V47.8574H63.6258ZM61.8943 55.1045H63.1243C65.2211 55.1045 67.7079 55.142 67.7079 52.5641C67.7079 50.0278 65.0457 50.0881 63.0149 50.0881H61.8943V55.1045Z" fill="white"/>
<path id="Vector_18" fill-rule="evenodd" clip-rule="evenodd" d="M73.1082 4.07617C74.5714 4.07617 76.2864 4.09696 77.5969 4.82874C78.9734 5.62289 79.7596 7.14882 79.7596 8.69554C79.7596 11.0177 78.1871 12.9511 75.8076 13.2297L81.0041 20.2793H78.0117L73.1639 13.423H71.3768V20.2793H68.7476V4.07617H73.1082ZM71.3768 11.3233H72.6067C74.7035 11.3233 77.1903 11.3607 77.1903 8.78285C77.1903 6.24657 74.5281 6.30685 72.4994 6.30685H71.3768V11.3233Z" fill="white"/>
<path id="Vector_19" fill-rule="evenodd" clip-rule="evenodd" d="M103.775 17.9904H105.315C108.838 17.9904 112.166 16.7077 112.166 12.08C112.166 7.45234 108.838 6.3027 105.315 6.3027H103.775V17.9904ZM101.146 4.07617H105.558C110.604 4.07617 114.796 6.58335 114.796 12.0904C114.796 17.7014 110.691 20.2772 105.494 20.2772H101.146V4.07617Z" fill="white"/>
<path id="Vector_20" fill-rule="evenodd" clip-rule="evenodd" d="M139.57 39.3547C138.724 39.812 137.735 40.0719 136.638 40.0719C133.08 40.0719 130.64 37.3319 130.64 34.0139C130.64 30.8249 132.774 27.9559 136.638 27.9559C137.773 27.9559 138.759 28.2033 139.585 28.6357L140.918 26.7003C139.653 25.983 138.189 25.5693 136.638 25.5693C131.922 25.5693 128.013 29.3717 128.013 34.0139C128.013 38.8266 131.879 42.4585 136.638 42.4585C138.212 42.4585 139.686 42.0593 140.955 41.3546L139.57 39.3547Z" fill="white"/>
<path id="Vector_21" fill-rule="evenodd" clip-rule="evenodd" d="M25.7805 39.3547C24.9344 39.812 23.9459 40.0719 22.85 40.0719C19.2901 40.0719 16.8528 37.3319 16.8528 34.0139C16.8528 30.8249 18.9847 27.9559 22.85 27.9559C23.9851 27.9559 24.9695 28.2033 25.795 28.6357L27.1302 26.7003C25.8631 25.983 24.3999 25.5693 22.85 25.5693C18.1323 25.5693 14.2236 29.3717 14.2236 34.0139C14.2236 38.8266 18.089 42.4585 22.85 42.4585C24.4226 42.4585 25.8961 42.0593 27.1674 41.3546L25.7805 39.3547Z" fill="white"/>
</g>
<path id="Vector_22" fill-rule="evenodd" clip-rule="evenodd" d="M112.738 74.8256C104.83 81.3119 94.8287 84.8772 84.5079 84.8772C72.7261 84.8772 61.65 80.3618 53.3187 72.1646C44.9874 63.9653 40.3997 53.0655 40.3997 41.4714C40.3997 32.5071 43.1527 23.9045 48.3595 16.5908C53.4528 9.43936 60.5067 4.01961 68.7596 0.913696L68.4418 0.0966797C60.0238 3.26496 52.8275 8.79489 47.6331 16.0878C42.319 23.5511 39.5103 32.3262 39.5103 41.4714C39.5103 53.2984 44.1908 64.4185 52.6893 72.782C61.1898 81.1455 72.4887 85.7524 84.5079 85.7524C95.0433 85.7524 105.248 82.1122 113.318 75.4888L112.738 74.8256Z" fill="#184897"/>
<path id="Vector_23" fill-rule="evenodd" clip-rule="evenodd" d="M86.5323 34.0139C86.5323 30.8249 84.4005 27.9559 80.5351 27.9559C76.6697 27.9559 74.5379 30.8249 74.5379 34.0139C74.5379 37.3319 76.9752 40.0719 80.5351 40.0719C84.093 40.0719 86.5323 37.3319 86.5323 34.0139ZM89.1594 34.0139C89.1594 38.8266 85.2941 42.4585 80.5351 42.4585C75.7741 42.4585 71.9087 38.8266 71.9087 34.0139C71.9087 29.3717 75.8174 25.5693 80.5351 25.5693C85.2507 25.5693 89.1594 29.3717 89.1594 34.0139Z" fill="white"/>
</g>
</g>
<defs>
<clipPath id="clip0_22_499">
<rect width="141.447" height="87.5621" fill="white"/>
</clipPath>
</defs>
</svg>
